<svg xmlns="http://www.w3.org/2000/svg" viewBox="0 0 64 94"><title>10Diamond</title><rect width="64" height="94" rx="4" ry="4" style="fill:#fffce7"/><polygon points="6.98 13.85 6.98 13.85 4.5 10.02 2.01 13.85 2.01 13.85 4.5 17.68 6.98 13.85" style="fill:#a12337"/><polygon points="48.69 27.28 48.69 27.28 45.21 21.92 41.72 27.28 41.72 27.28 45.21 32.65 48.69 27.28" style="fill:#a12337"/><polygon points="48.69 40.31 48.69 40.31 45.21 34.95 41.72 40.31 41.72 40.31 45.21 45.68 48.69 40.31" style="fill:#a12337"/><polygon points="48.69 53.34 48.69 53.34 45.21 47.97 41.72 53.34 41.72 53.34 45.21 58.71 48.69 53.34" style="fill:#a12337"/><polygon points="48.69 66.23 48.69 66.23 45.21 60.86 41.72 66.23 41.72 66.23 45.21 71.59 48.69 66.23" style="fill:#a12337"/><polygon points="48.69 66.37 48.69 66.37 45.21 61 41.72 66.37 41.72 66.37 45.21 71.74 48.69 66.37" style="fill:#a12337"/><polygon points="22.35 27.28 22.35 27.28 18.87 21.92 15.38 27.28 15.38 27.28 18.87 32.65 22.35 27.28" style="fill:#a12337"/><polygon points="35.38 34.08 35.38 34.08 31.89 28.71 28.41 34.08 28.41 34.08 31.89 39.45 35.38 34.08" style="fill:#a12337"/><polygon points="35.38 60.42 35.38 60.42 31.89 55.05 28.41 60.42 28.41 60.42 31.89 65.79 35.38 60.42" style="fill:#a12337"/><polygon points="22.35 40.31 22.35 40.31 18.87 34.95 15.38 40.31 15.38 40.31 18.87 45.68 22.35 40.31" style="fill:#a12337"/><polygon points="22.35 53.34 22.35 53.34 18.87 47.97 15.38 53.34 15.38 53.34 18.87 58.71 22.35 53.34" style="fill:#a12337"/><polygon points="22.35 66.37 22.35 66.37 18.87 61 15.38 66.37 15.38 66.37 18.87 71.74 22.35 66.37" style="fill:#a12337"/><polygon points="57.23 80.11 57.23 80.11 59.71 83.94 62.2 80.11 62.2 80.11 59.71 76.28 57.23 80.11" style="fill:#a12337"/><path d="M3.63,9.22H2.56V3.9H1.16V3.26c.7,0,1.57,0,1.57-.82h.9Z" style="fill:#a12337"/><path d="M8.28,8c0,.31-.18,1.3-1.82,1.3-.72,0-1.56-.18-1.8-.89a8.84,8.84,0,0,1-.14-2.6c0-2.11,0-2.28.18-2.61.35-.79,1.39-.84,1.73-.84a1.88,1.88,0,0,1,1.72.83c.19.37.2.53.2,2.64C8.34,6.21,8.32,7.69,8.28,8Zm-1-3.28c0-1.11,0-1.61-.84-1.61s-.85.57-.86,1,0,.66,0,2.13c0,.35,0,1.11,0,1.4,0,.47,0,1,.84,1s.84-.45.85-1c0-.19,0-.62,0-1.7Z" style="fill:#a12337"/><path d="M54.85,90.5H8A4.5,4.5,0,0,1,3.5,86V19.19h1V86A3.5,3.5,0,0,0,8,89.5H54.85Z"/><path d="M60.5,74.82h-1V8A3.5,3.5,0,0,0,56,4.5H10.16v-1H56A4.5,4.5,0,0,1,60.5,8Z"/><path d="M60.63,84.8H61.7v5.32h1.4v.64c-.7,0-1.57,0-1.57.82h-.9Z" style="fill:#a12337"/><path d="M56,86c0-.31.18-1.3,1.82-1.3.72,0,1.56.18,1.8.89a8.81,8.81,0,0,1,.14,2.6c0,2.11,0,2.27-.18,2.61-.35.79-1.39.85-1.73.85a1.88,1.88,0,0,1-1.72-.83c-.19-.37-.2-.53-.2-2.64C55.93,87.81,56,86.33,56,86Zm1,3.28c0,1.11,0,1.61.84,1.61s.85-.57.86-1,0-.66,0-2.13c0-.35,0-1.11,0-1.4,0-.47,0-1-.84-1s-.84.45-.85,1c0,.19,0,.62,0,1.7Z" style="fill:#a12337"/></svg>