<svg xmlns="http://www.w3.org/2000/svg" viewBox="0 0 64 94"><title>10Heart</title><rect width="64" height="94" rx="4" ry="4" style="fill:#fffce7"/><path d="M7.35,12.08a1.63,1.63,0,0,0-1.43-1.77,1.49,1.49,0,0,0-1.43,1,1.49,1.49,0,0,0-1.43-1,1.63,1.63,0,0,0-1.43,1.77,4,4,0,0,0,1,2.23C3.32,15.2,4.48,17,4.48,17h0s1.17-1.76,1.85-2.64A4,4,0,0,0,7.35,12.08Z" style="fill:#a12337"/><path d="M23.2,25A2.44,2.44,0,0,0,21,22.35,2.23,2.23,0,0,0,18.9,23.8a2.23,2.23,0,0,0-2.15-1.45A2.44,2.44,0,0,0,14.61,25a6,6,0,0,0,1.52,3.35c1,1.33,2.78,4,2.78,4h0s1.75-2.64,2.78-4A6,6,0,0,0,23.2,25Z" style="fill:#a12337"/><path d="M23.2,38.11A2.44,2.44,0,0,0,21,35.46a2.23,2.23,0,0,0-2.15,1.45,2.23,2.23,0,0,0-2.15-1.45,2.44,2.44,0,0,0-2.15,2.65,6,6,0,0,0,1.52,3.35c1,1.33,2.78,4,2.78,4h0s1.75-2.64,2.78-4A6,6,0,0,0,23.2,38.11Z" style="fill:#a12337"/><path d="M36.19,32.18A2.44,2.44,0,0,0,34,29.53,2.23,2.23,0,0,0,31.9,31a2.23,2.23,0,0,0-2.15-1.45,2.44,2.44,0,0,0-2.15,2.65,6,6,0,0,0,1.52,3.35c1,1.33,2.78,4,2.78,4h0s1.75-2.64,2.78-4A6,6,0,0,0,36.19,32.18Z" style="fill:#a12337"/><path d="M23.2,51.23A2.44,2.44,0,0,0,21,48.57,2.23,2.23,0,0,0,18.9,50a2.23,2.23,0,0,0-2.15-1.45,2.44,2.44,0,0,0-2.15,2.65,6,6,0,0,0,1.52,3.35c1,1.33,2.78,4,2.78,4h0s1.75-2.64,2.78-4A6,6,0,0,0,23.2,51.23Z" style="fill:#a12337"/><path d="M23.2,64.34A2.44,2.44,0,0,0,21,61.68a2.23,2.23,0,0,0-2.15,1.45,2.23,2.23,0,0,0-2.15-1.45,2.44,2.44,0,0,0-2.15,2.65,6,6,0,0,0,1.52,3.35c1,1.33,2.78,4,2.78,4h0s1.75-2.64,2.78-4A6,6,0,0,0,23.2,64.34Z" style="fill:#a12337"/><path d="M49.39,25a2.44,2.44,0,0,0-2.15-2.65A2.23,2.23,0,0,0,45.1,23.8,2.23,2.23,0,0,0,43,22.35,2.44,2.44,0,0,0,40.8,25a6,6,0,0,0,1.52,3.35c1,1.33,2.78,4,2.78,4h0s1.75-2.64,2.78-4A6,6,0,0,0,49.39,25Z" style="fill:#a12337"/><path d="M49.39,38.11a2.44,2.44,0,0,0-2.15-2.65,2.23,2.23,0,0,0-2.15,1.45A2.23,2.23,0,0,0,43,35.46a2.44,2.44,0,0,0-2.15,2.65,6,6,0,0,0,1.52,3.35c1,1.33,2.78,4,2.78,4h0s1.75-2.64,2.78-4A6,6,0,0,0,49.39,38.11Z" style="fill:#a12337"/><path d="M36.19,58.56A2.44,2.44,0,0,0,34,55.91a2.23,2.23,0,0,0-2.15,1.45,2.23,2.23,0,0,0-2.15-1.45,2.44,2.44,0,0,0-2.15,2.65,6,6,0,0,0,1.52,3.35c1,1.33,2.78,4,2.78,4h0s1.75-2.64,2.78-4A6,6,0,0,0,36.19,58.56Z" style="fill:#a12337"/><path d="M49.39,51.23a2.44,2.44,0,0,0-2.15-2.65A2.23,2.23,0,0,0,45.1,50,2.23,2.23,0,0,0,43,48.57a2.44,2.44,0,0,0-2.15,2.65,6,6,0,0,0,1.52,3.35c1,1.33,2.78,4,2.78,4h0s1.75-2.64,2.78-4A6,6,0,0,0,49.39,51.23Z" style="fill:#a12337"/><path d="M49.39,64.34a2.44,2.44,0,0,0-2.15-2.65,2.23,2.23,0,0,0-2.15,1.45A2.23,2.23,0,0,0,43,61.68a2.44,2.44,0,0,0-2.15,2.65,6,6,0,0,0,1.52,3.35c1,1.33,2.78,4,2.78,4h0s1.75-2.64,2.78-4A6,6,0,0,0,49.39,64.34Z" style="fill:#a12337"/><path d="M3.63,9.22H2.56V3.9H1.16V3.26c.7,0,1.57,0,1.57-.82h.9Z" style="fill:#a12337"/><path d="M8.28,8c0,.31-.18,1.3-1.82,1.3-.72,0-1.56-.18-1.8-.89a8.84,8.84,0,0,1-.14-2.6c0-2.11,0-2.27.18-2.61.35-.79,1.39-.84,1.73-.84a1.88,1.88,0,0,1,1.72.83c.19.37.2.53.2,2.64C8.34,6.21,8.32,7.69,8.28,8Zm-1-3.28c0-1.11,0-1.61-.84-1.61s-.85.57-.86,1,0,.66,0,2.13c0,.35,0,1.11,0,1.4,0,.47,0,1,.84,1s.84-.45.85-1c0-.19,0-.62,0-1.7Z" style="fill:#a12337"/><path d="M54.85,90.5H8A4.5,4.5,0,0,1,3.5,86V19.19h1V86A3.5,3.5,0,0,0,8,89.5H54.85Z"/><path d="M60.5,74.82h-1V8A3.5,3.5,0,0,0,56,4.5H10.16v-1H56A4.5,4.5,0,0,1,60.5,8Z"/><path d="M62.19,81.94a1.63,1.63,0,0,1-1.43,1.77,1.49,1.49,0,0,1-1.43-1,1.49,1.49,0,0,1-1.43,1,1.63,1.63,0,0,1-1.43-1.77,4,4,0,0,1,1-2.23c.69-.89,1.85-2.64,1.85-2.64h0s1.17,1.76,1.85,2.64A4,4,0,0,1,62.19,81.94Z" style="fill:#a12337"/><path d="M60.63,84.8H61.7v5.32h1.4v.64c-.7,0-1.57,0-1.57.82h-.9Z" style="fill:#a12337"/><path d="M56,86c0-.31.18-1.3,1.82-1.3.72,0,1.56.18,1.8.89a8.81,8.81,0,0,1,.14,2.6c0,2.11,0,2.27-.18,2.61-.35.79-1.39.84-1.73.84a1.88,1.88,0,0,1-1.72-.83c-.19-.37-.2-.53-.2-2.64C55.93,87.81,56,86.33,56,86Zm1,3.28c0,1.11,0,1.61.84,1.61s.85-.57.86-1,0-.66,0-2.13c0-.35,0-1.11,0-1.4,0-.47,0-1-.84-1s-.84.45-.85,1c0,.19,0,.62,0,1.7Z" style="fill:#a12337"/></svg>