<svg xmlns="http://www.w3.org/2000/svg" viewBox="0 0 64 94"><title>10Spade</title><rect width="64" height="94" rx="4" ry="4" style="fill:#fffce7"/><path d="M5.78,16.15a1.49,1.49,0,0,0,1.31-1.61,3.62,3.62,0,0,0-.92-2c-.63-.81-1.69-2.41-1.69-2.41h0s-1.06,1.6-1.69,2.41a3.62,3.62,0,0,0-.92,2,1.49,1.49,0,0,0,1.31,1.61,1.38,1.38,0,0,0,1.18-.62,1.85,1.85,0,0,1-1.5,1.65l0,.1H6.18v-.09A1.84,1.84,0,0,1,4.6,15.53,1.38,1.38,0,0,0,5.78,16.15Z"/><path d="M60.59,77.82a1.49,1.49,0,0,1,1.31,1.61,3.62,3.62,0,0,1-.92,2c-.63.81-1.69,2.41-1.69,2.41h0s-1.06-1.6-1.69-2.41a3.62,3.62,0,0,1-.92-2A1.49,1.49,0,0,1,58,77.82a1.38,1.38,0,0,1,1.18.62,1.85,1.85,0,0,0-1.5-1.65l0-.1H61v.09a1.84,1.84,0,0,0-1.57,1.65A1.38,1.38,0,0,1,60.59,77.82Z"/><path d="M3.63,9.22H2.56V3.9H1.16V3.26c.7,0,1.57,0,1.57-.82h.9Z"/><path d="M8.28,8c0,.31-.18,1.3-1.82,1.3-.72,0-1.56-.18-1.8-.89a8.84,8.84,0,0,1-.14-2.6c0-2.11,0-2.27.18-2.61.35-.79,1.39-.84,1.73-.84a1.88,1.88,0,0,1,1.72.83c.19.37.2.53.2,2.64C8.34,6.21,8.32,7.69,8.28,8Zm-1-3.28c0-1.11,0-1.61-.84-1.61s-.85.57-.86,1,0,.66,0,2.13c0,.35,0,1.11,0,1.4,0,.47,0,1,.84,1s.84-.45.85-1c0-.19,0-.62,0-1.7Z"/><path d="M54.85,90.5H8A4.5,4.5,0,0,1,3.5,86V19.19h1V86A3.5,3.5,0,0,0,8,89.5H54.85Z"/><path d="M60.5,74.82h-1V8A3.5,3.5,0,0,0,56,4.5H10.16v-1H56A4.5,4.5,0,0,1,60.5,8Z"/><path d="M60.63,84.8H61.7v5.32h1.4v.64c-.7,0-1.57,0-1.57.82h-.9Z"/><path d="M56,86c0-.31.18-1.3,1.82-1.3.72,0,1.56.18,1.8.89a8.81,8.81,0,0,1,.14,2.6c0,2.11,0,2.28-.18,2.61-.35.79-1.39.84-1.73.84a1.88,1.88,0,0,1-1.72-.82c-.19-.37-.2-.53-.2-2.64C55.93,87.81,56,86.32,56,86Zm1,3.28c0,1.11,0,1.61.84,1.61s.85-.57.86-1,0-.66,0-2.13c0-.35,0-1.11,0-1.4,0-.47,0-1-.84-1s-.84.45-.85,1c0,.19,0,.62,0,1.7Z"/><path d="M47.07,30.5a2,2,0,0,0,1.74-2.15,4.82,4.82,0,0,0-1.23-2.71c-.84-1.08-2.25-3.21-2.25-3.21h0s-1.41,2.13-2.25,3.21a4.82,4.82,0,0,0-1.23,2.71,2,2,0,0,0,1.74,2.15,1.84,1.84,0,0,0,1.57-.83,2.46,2.46,0,0,1-2,2.19l0,.13H47.6l0-.12a2.45,2.45,0,0,1-2.08-2.2A1.84,1.84,0,0,0,47.07,30.5Z"/><path d="M47.07,43.63a2,2,0,0,0,1.74-2.15,4.82,4.82,0,0,0-1.23-2.71c-.84-1.08-2.25-3.21-2.25-3.21h0s-1.41,2.13-2.25,3.21a4.82,4.82,0,0,0-1.23,2.71,2,2,0,0,0,1.74,2.15,1.84,1.84,0,0,0,1.57-.83,2.46,2.46,0,0,1-2,2.19l0,.13H47.6l0-.12a2.45,2.45,0,0,1-2.08-2.2A1.84,1.84,0,0,0,47.07,43.63Z"/><path d="M47.07,56.75a2,2,0,0,0,1.74-2.15,4.82,4.82,0,0,0-1.23-2.71c-.84-1.08-2.25-3.21-2.25-3.21h0s-1.41,2.13-2.25,3.21a4.82,4.82,0,0,0-1.23,2.71,2,2,0,0,0,1.74,2.15,1.84,1.84,0,0,0,1.57-.83,2.46,2.46,0,0,1-2,2.19l0,.13H47.6l0-.12a2.45,2.45,0,0,1-2.08-2.2A1.84,1.84,0,0,0,47.07,56.75Z"/><path d="M47.07,69.88a2,2,0,0,0,1.74-2.15A4.82,4.82,0,0,0,47.58,65c-.84-1.08-2.25-3.21-2.25-3.21h0S43.92,63.94,43.08,65a4.82,4.82,0,0,0-1.23,2.71,2,2,0,0,0,1.74,2.15A1.84,1.84,0,0,0,45.16,69a2.46,2.46,0,0,1-2,2.19l0,.13H47.6l0-.12A2.45,2.45,0,0,1,45.5,69,1.84,1.84,0,0,0,47.07,69.88Z"/><path d="M20.55,30.5a2,2,0,0,0,1.74-2.15,4.82,4.82,0,0,0-1.23-2.71c-.84-1.08-2.25-3.21-2.25-3.21h0s-1.41,2.13-2.25,3.21a4.82,4.82,0,0,0-1.23,2.71,2,2,0,0,0,1.74,2.15,1.84,1.84,0,0,0,1.57-.83,2.46,2.46,0,0,1-2,2.19l0,.13h4.46l0-.12A2.45,2.45,0,0,1,19,29.67,1.84,1.84,0,0,0,20.55,30.5Z"/><path d="M20.55,43.63a2,2,0,0,0,1.74-2.15,4.82,4.82,0,0,0-1.23-2.71c-.84-1.08-2.25-3.21-2.25-3.21h0s-1.41,2.13-2.25,3.21a4.82,4.82,0,0,0-1.23,2.71,2,2,0,0,0,1.74,2.15,1.84,1.84,0,0,0,1.57-.83,2.46,2.46,0,0,1-2,2.19l0,.13h4.46l0-.12A2.45,2.45,0,0,1,19,42.8,1.84,1.84,0,0,0,20.55,43.63Z"/><path d="M33.68,37.53a2,2,0,0,0,1.74-2.15,4.82,4.82,0,0,0-1.23-2.71c-.84-1.08-2.25-3.21-2.25-3.21h0s-1.41,2.13-2.25,3.21a4.82,4.82,0,0,0-1.23,2.71,2,2,0,0,0,1.74,2.15,1.84,1.84,0,0,0,1.57-.83,2.46,2.46,0,0,1-2,2.19l0,.13h4.46l0-.12a2.45,2.45,0,0,1-2.08-2.2A1.84,1.84,0,0,0,33.68,37.53Z"/><path d="M33.68,63.91a2,2,0,0,0,1.74-2.15,4.82,4.82,0,0,0-1.23-2.71c-.84-1.08-2.25-3.21-2.25-3.21h0S30.52,58,29.69,59.05a4.82,4.82,0,0,0-1.23,2.71,2,2,0,0,0,1.74,2.15,1.84,1.84,0,0,0,1.57-.83,2.46,2.46,0,0,1-2,2.19l0,.13h4.46l0-.12a2.45,2.45,0,0,1-2.08-2.2A1.84,1.84,0,0,0,33.68,63.91Z"/><path d="M20.55,56.75a2,2,0,0,0,1.74-2.15,4.82,4.82,0,0,0-1.23-2.71c-.84-1.08-2.25-3.21-2.25-3.21h0s-1.41,2.13-2.25,3.21a4.82,4.82,0,0,0-1.23,2.71,2,2,0,0,0,1.74,2.15,1.84,1.84,0,0,0,1.57-.83,2.46,2.46,0,0,1-2,2.19l0,.13h4.46l0-.12A2.45,2.45,0,0,1,19,55.92,1.84,1.84,0,0,0,20.55,56.75Z"/><path d="M20.55,69.88a2,2,0,0,0,1.74-2.15A4.82,4.82,0,0,0,21.07,65c-.84-1.08-2.25-3.21-2.25-3.21h0S17.4,63.94,16.56,65a4.82,4.82,0,0,0-1.23,2.71,2,2,0,0,0,1.74,2.15A1.84,1.84,0,0,0,18.64,69a2.46,2.46,0,0,1-2,2.19l0,.13h4.46l0-.12A2.45,2.45,0,0,1,19,69,1.84,1.84,0,0,0,20.55,69.88Z"/></svg>