<svg xmlns="http://www.w3.org/2000/svg" viewBox="0 0 64 94"><title>2Club</title><rect width="64" height="94" rx="4" ry="4" style="fill:#fffce7"/><path d="M6.31,9.22H2.6V8.41L4.35,6c.72-1,.85-1.26.85-2,0-.31,0-.92-.78-.92s-.76.58-.76,1v.78h-1V4a1.49,1.49,0,0,1,.43-1.27A2,2,0,0,1,4.4,2.36a1.85,1.85,0,0,1,1.26.39A1.61,1.61,0,0,1,6.2,4.12a3.16,3.16,0,0,1-.79,2L3.67,8.49H6.31Z"/><path d="M54.85,90.5H8A4.5,4.5,0,0,1,3.5,86V19.19h1V86A3.5,3.5,0,0,0,8,89.5H54.85Z"/><path d="M60.5,74.82h-1V8A3.5,3.5,0,0,0,56,4.5H9.15v-1H56A4.5,4.5,0,0,1,60.5,8Z"/><path d="M57.39,84.79H61.1v.81L59.35,88c-.72,1-.85,1.26-.85,2,0,.31,0,.92.78.92s.76-.58.76-1v-.78h1V90a1.49,1.49,0,0,1-.43,1.27,2,2,0,0,1-1.27.39A1.85,1.85,0,0,1,58,91.26a1.61,1.61,0,0,1-.54-1.37,3.16,3.16,0,0,1,.79-2L60,85.52H57.39Z"/><path d="M5.77,16.17a1.48,1.48,0,0,0,1.31-1.61,1.48,1.48,0,0,0-1.31-1.61,1.07,1.07,0,0,0-.26,0,1.85,1.85,0,0,0,.3-1A1.48,1.48,0,0,0,4.5,10.34,1.48,1.48,0,0,0,3.2,12a1.84,1.84,0,0,0,.32,1,1.07,1.07,0,0,0-.35-.06,1.48,1.48,0,0,0-1.31,1.61,1.48,1.48,0,0,0,1.31,1.61,1.33,1.33,0,0,0,1.19-1h0v0a2.09,2.09,0,0,1-1.68,2.17l0,.11H6.35v-.1a2.08,2.08,0,0,1-1.75-2.18v0h0A1.33,1.33,0,0,0,5.77,16.17Z"/><path d="M58.11,78a1.65,1.65,0,0,0,0,3.23,1.07,1.07,0,0,0,.26,0,1.85,1.85,0,0,0-.3,1,1.34,1.34,0,1,0,2.61,0,1.84,1.84,0,0,0-.32-1,1.07,1.07,0,0,0,.35.06,1.65,1.65,0,0,0,0-3.23,1.33,1.33,0,0,0-1.19,1h0v0a2.09,2.09,0,0,1,1.68-2.17l0-.11H57.53v.1a2.08,2.08,0,0,1,1.75,2.18v0h0A1.33,1.33,0,0,0,58.11,78Z"/><path d="M33.59,30.41a2,2,0,0,0,1.74-2.15,2,2,0,0,0-1.74-2.15,1.43,1.43,0,0,0-.34,0,2.47,2.47,0,0,0,.39-1.36,2,2,0,0,0-1.74-2.15,2,2,0,0,0-1.74,2.15,2.45,2.45,0,0,0,.42,1.4,1.43,1.43,0,0,0-.47-.08,2,2,0,0,0-1.74,2.15,2,2,0,0,0,1.74,2.15,1.77,1.77,0,0,0,1.59-1.28h0v0a2.78,2.78,0,0,1-2.23,2.89l0,.14h4.92l0-.13A2.78,2.78,0,0,1,32,29.18v0h0A1.77,1.77,0,0,0,33.59,30.41Z"/><path d="M33.59,69.6a2.2,2.2,0,0,0,0-4.3,1.43,1.43,0,0,0-.34,0A2.47,2.47,0,0,0,33.65,64a2,2,0,0,0-1.74-2.15A2,2,0,0,0,30.16,64a2.45,2.45,0,0,0,.42,1.4,1.43,1.43,0,0,0-.47-.08,2.2,2.2,0,0,0,0,4.3,1.77,1.77,0,0,0,1.59-1.28h0v0a2.78,2.78,0,0,1-2.23,2.89l0,.14h4.92l0-.13A2.78,2.78,0,0,1,32,68.37v0h0A1.77,1.77,0,0,0,33.59,69.6Z"/></svg>