<svg xmlns="http://www.w3.org/2000/svg" viewBox="0 0 64 94"><title>2Diamond</title><rect width="64" height="94" rx="4" ry="4" style="fill:#fffce7"/><polygon points="6.98 13.85 6.98 13.85 4.5 10.02 2.01 13.85 2.01 13.85 4.5 17.68 6.98 13.85" style="fill:#a12337"/><polygon points="57.23 80.11 57.23 80.11 59.71 83.94 62.2 80.11 62.2 80.11 59.71 76.28 57.23 80.11" style="fill:#a12337"/><polygon points="35.49 27.28 35.49 27.28 32 21.92 28.51 27.28 28.51 27.28 32 32.65 35.49 27.28" style="fill:#a12337"/><polygon points="35.49 66.37 35.49 66.37 32 61 28.51 66.37 28.51 66.37 32 71.74 35.49 66.37" style="fill:#a12337"/><path d="M6.31,9.22H2.6V8.41L4.35,6c.72-1,.85-1.26.85-2,0-.31,0-.92-.78-.92s-.76.58-.76,1v.78h-1V4a1.49,1.49,0,0,1,.43-1.27A2,2,0,0,1,4.4,2.36a1.85,1.85,0,0,1,1.26.39A1.61,1.61,0,0,1,6.2,4.12a3.16,3.16,0,0,1-.79,2L3.67,8.49H6.31Z" style="fill:#a12337"/><path d="M54.85,90.5H8A4.5,4.5,0,0,1,3.5,86V19.19h1V86A3.5,3.5,0,0,0,8,89.5H54.85Z"/><path d="M60.5,74.82h-1V8A3.5,3.5,0,0,0,56,4.5H9.15v-1H56A4.5,4.5,0,0,1,60.5,8Z"/><path d="M57.39,84.8H61.1v.81L59.35,88c-.72,1-.85,1.26-.85,2,0,.31,0,.92.78.92s.76-.58.76-1v-.78h1V90a1.49,1.49,0,0,1-.43,1.27,2,2,0,0,1-1.27.39A1.85,1.85,0,0,1,58,91.27a1.61,1.61,0,0,1-.54-1.37,3.16,3.16,0,0,1,.79-2L60,85.53H57.39Z" style="fill:#a12337"/></svg>