<svg xmlns="http://www.w3.org/2000/svg" viewBox="0 0 64 94"><title>2Heart</title><rect width="64" height="94" rx="4" ry="4" style="fill:#fffce7"/><path d="M7.34,12.08a1.63,1.63,0,0,0-1.43-1.77,1.49,1.49,0,0,0-1.43,1,1.49,1.49,0,0,0-1.43-1,1.63,1.63,0,0,0-1.43,1.77,4,4,0,0,0,1,2.23C3.31,15.2,4.48,17,4.48,17h0s1.17-1.76,1.85-2.64A4,4,0,0,0,7.34,12.08Z" style="fill:#a12337"/><path d="M6.31,9.22H2.6V8.41L4.35,6c.72-1,.85-1.26.85-2,0-.31,0-.92-.78-.92s-.76.58-.76,1v.78h-1V4a1.49,1.49,0,0,1,.43-1.27A2,2,0,0,1,4.4,2.36a1.85,1.85,0,0,1,1.26.39A1.61,1.61,0,0,1,6.2,4.12a3.16,3.16,0,0,1-.79,2L3.67,8.49H6.31Z" style="fill:#a12337"/><path d="M54.85,90.5H8A4.5,4.5,0,0,1,3.5,86V19.19h1V86A3.5,3.5,0,0,0,8,89.5H54.85Z"/><path d="M60.5,74.82h-1V8A3.5,3.5,0,0,0,56,4.5H9.15v-1H56A4.5,4.5,0,0,1,60.5,8Z"/><path d="M62.19,81.94a1.63,1.63,0,0,1-1.43,1.77,1.49,1.49,0,0,1-1.43-1,1.49,1.49,0,0,1-1.43,1,1.63,1.63,0,0,1-1.43-1.77,4,4,0,0,1,1-2.23c.69-.89,1.85-2.64,1.85-2.64h0s1.17,1.76,1.85,2.64A4,4,0,0,1,62.19,81.94Z" style="fill:#a12337"/><path d="M57.39,84.8H61.1v.81L59.35,88c-.72,1-.85,1.26-.85,2,0,.31,0,.92.78.92s.76-.58.76-1v-.78h1V90a1.49,1.49,0,0,1-.43,1.27,2,2,0,0,1-1.27.39A1.85,1.85,0,0,1,58,91.27a1.61,1.61,0,0,1-.54-1.37,3.16,3.16,0,0,1,.79-2L60,85.53H57.39Z" style="fill:#a12337"/><path d="M36.3,25a2.44,2.44,0,0,0-2.15-2.65A2.23,2.23,0,0,0,32,23.8a2.23,2.23,0,0,0-2.15-1.45A2.44,2.44,0,0,0,27.7,25a6,6,0,0,0,1.52,3.35c1,1.33,2.78,4,2.78,4h0s1.75-2.64,2.78-4A6,6,0,0,0,36.3,25Z" style="fill:#a12337"/><path d="M36.3,64.34a2.44,2.44,0,0,0-2.15-2.65A2.23,2.23,0,0,0,32,63.13a2.23,2.23,0,0,0-2.15-1.45,2.44,2.44,0,0,0-2.15,2.65,6,6,0,0,0,1.52,3.35c1,1.33,2.78,4,2.78,4h0s1.75-2.64,2.78-4A6,6,0,0,0,36.3,64.34Z" style="fill:#a12337"/></svg>