<svg xmlns="http://www.w3.org/2000/svg" viewBox="0 0 64 94"><title>2Spade</title><rect width="64" height="94" rx="4" ry="4" style="fill:#fffce7"/><path d="M5.78,16.15a1.49,1.49,0,0,0,1.31-1.61,3.62,3.62,0,0,0-.92-2c-.63-.81-1.69-2.41-1.69-2.41h0s-1.06,1.6-1.69,2.41a3.62,3.62,0,0,0-.92,2,1.49,1.49,0,0,0,1.31,1.61,1.38,1.38,0,0,0,1.18-.62,1.85,1.85,0,0,1-1.5,1.65l0,.1H6.18v-.09A1.84,1.84,0,0,1,4.6,15.53,1.38,1.38,0,0,0,5.78,16.15Z"/><path d="M60.59,77.82a1.49,1.49,0,0,1,1.31,1.61,3.62,3.62,0,0,1-.92,2c-.63.81-1.69,2.41-1.69,2.41h0s-1.06-1.6-1.69-2.41a3.62,3.62,0,0,1-.92-2A1.49,1.49,0,0,1,58,77.82a1.38,1.38,0,0,1,1.18.62,1.85,1.85,0,0,0-1.5-1.65l0-.1H61v.09a1.84,1.84,0,0,0-1.57,1.65A1.38,1.38,0,0,1,60.59,77.82Z"/><path d="M6.31,9.22H2.6V8.41L4.35,6c.72-1,.85-1.26.85-2,0-.31,0-.92-.78-.92s-.76.58-.76,1v.78h-1V4a1.49,1.49,0,0,1,.43-1.27A2,2,0,0,1,4.4,2.36a1.85,1.85,0,0,1,1.26.39A1.61,1.61,0,0,1,6.2,4.12a3.16,3.16,0,0,1-.79,2L3.67,8.49H6.31Z"/><path d="M54.85,90.5H8A4.5,4.5,0,0,1,3.5,86V19.19h1V86A3.5,3.5,0,0,0,8,89.5H54.85Z"/><path d="M60.5,74.82h-1V8A3.5,3.5,0,0,0,56,4.5H9.15v-1H56A4.5,4.5,0,0,1,60.5,8Z"/><path d="M57.39,84.79H61.1v.81L59.35,88c-.72,1-.85,1.26-.85,2,0,.31,0,.92.78.92s.76-.58.76-.95v-.78h1V90a1.5,1.5,0,0,1-.43,1.27,2,2,0,0,1-1.27.39A1.85,1.85,0,0,1,58,91.26a1.62,1.62,0,0,1-.54-1.37,3.16,3.16,0,0,1,.79-2L60,85.52H57.39Z"/><path d="M33.58,30.5a2,2,0,0,0,1.74-2.15,4.82,4.82,0,0,0-1.23-2.71c-.84-1.08-2.25-3.21-2.25-3.21h0s-1.41,2.13-2.25,3.21a4.82,4.82,0,0,0-1.23,2.71A2,2,0,0,0,30.1,30.5a1.84,1.84,0,0,0,1.57-.83,2.46,2.46,0,0,1-2,2.19l0,.13h4.46l0-.12A2.45,2.45,0,0,1,32,29.67,1.84,1.84,0,0,0,33.58,30.5Z"/><path d="M33.58,69.88a2,2,0,0,0,1.74-2.15A4.82,4.82,0,0,0,34.09,65c-.84-1.08-2.25-3.21-2.25-3.21h0S30.43,63.94,29.59,65a4.82,4.82,0,0,0-1.23,2.71,2,2,0,0,0,1.74,2.15A1.84,1.84,0,0,0,31.67,69a2.46,2.46,0,0,1-2,2.19l0,.13h4.46l0-.12A2.45,2.45,0,0,1,32,69,1.84,1.84,0,0,0,33.58,69.88Z"/></svg>