<svg xmlns="http://www.w3.org/2000/svg" viewBox="0 0 64 94"><title>3Club</title><rect width="64" height="94" rx="4" ry="4" style="fill:#fffce7"/><path d="M2.71,4.36a2.34,2.34,0,0,1,.24-1.44,1.86,1.86,0,0,1,1.49-.57,1.78,1.78,0,0,1,1.37.49,1.82,1.82,0,0,1,.37,1.29c0,.88-.12,1.34-1,1.48.94.18,1.12.49,1.12,2a1.5,1.5,0,0,1-.53,1.3,2,2,0,0,1-1.37.41A2.74,2.74,0,0,1,3.2,9c-.74-.38-.65-1.25-.64-1.85h1a5.67,5.67,0,0,0,0,.63c0,.21,0,.74.83.74s.89-.56.89-.9c0-.12,0-.49,0-.68,0-.75-.4-1-1.09-1H3.84V5.28c.73,0,1.33,0,1.33-1,0-.82-.06-1.21-.77-1.21s-.78.55-.73,1.27Z"/><path d="M54.85,90.5H8A4.5,4.5,0,0,1,3.5,86V19.19h1V86A3.5,3.5,0,0,0,8,89.5H54.85Z"/><path d="M60.5,74.82h-1V8A3.5,3.5,0,0,0,56,4.5H9.15v-1H56A4.5,4.5,0,0,1,60.5,8Z"/><path d="M61,89.65a2.34,2.34,0,0,1-.24,1.44,1.86,1.86,0,0,1-1.49.57,1.78,1.78,0,0,1-1.37-.49,1.82,1.82,0,0,1-.37-1.29c0-.88.12-1.34,1-1.48-.93-.18-1.12-.49-1.12-2a1.5,1.5,0,0,1,.53-1.3,2,2,0,0,1,1.37-.41,2.74,2.74,0,0,1,1.21.26c.74.38.65,1.25.63,1.85h-1a5.65,5.65,0,0,0,0-.63c0-.21,0-.74-.83-.74s-.89.56-.89.9c0,.13,0,.49,0,.68,0,.75.39,1,1.09,1h.32v.76c-.73,0-1.33,0-1.33,1,0,.82.06,1.21.77,1.21s.78-.55.73-1.27Z"/><path d="M5.77,16.17a1.48,1.48,0,0,0,1.31-1.61,1.48,1.48,0,0,0-1.31-1.61,1.07,1.07,0,0,0-.26,0,1.85,1.85,0,0,0,.3-1A1.48,1.48,0,0,0,4.5,10.34,1.48,1.48,0,0,0,3.2,12a1.84,1.84,0,0,0,.32,1,1.07,1.07,0,0,0-.35-.06,1.48,1.48,0,0,0-1.31,1.61,1.48,1.48,0,0,0,1.31,1.61,1.33,1.33,0,0,0,1.19-1h0v0a2.09,2.09,0,0,1-1.68,2.17l0,.11H6.35v-.1a2.08,2.08,0,0,1-1.75-2.18v0h0A1.33,1.33,0,0,0,5.77,16.17Z"/><path d="M58.11,78a1.65,1.65,0,0,0,0,3.23,1.07,1.07,0,0,0,.26,0,1.85,1.85,0,0,0-.3,1,1.34,1.34,0,1,0,2.61,0,1.84,1.84,0,0,0-.32-1,1.07,1.07,0,0,0,.35.06,1.65,1.65,0,0,0,0-3.23,1.33,1.33,0,0,0-1.19,1h0v0a2.09,2.09,0,0,1,1.68-2.17l0-.11H57.53v.1a2.08,2.08,0,0,1,1.75,2.18v0h0A1.33,1.33,0,0,0,58.11,78Z"/><path d="M34,30.41a2,2,0,0,0,1.74-2.15A2,2,0,0,0,34,26.11a1.43,1.43,0,0,0-.34,0,2.47,2.47,0,0,0,.39-1.36,2,2,0,0,0-1.74-2.15,2,2,0,0,0-1.74,2.15,2.45,2.45,0,0,0,.42,1.4,1.43,1.43,0,0,0-.47-.08,2,2,0,0,0-1.74,2.15,2,2,0,0,0,1.74,2.15,1.77,1.77,0,0,0,1.59-1.28h0v0a2.78,2.78,0,0,1-2.23,2.89l0,.14h4.92l0-.13a2.78,2.78,0,0,1-2.34-2.9v0h0A1.77,1.77,0,0,0,34,30.41Z"/><path d="M34,50a2.2,2.2,0,0,0,0-4.3,1.43,1.43,0,0,0-.34,0,2.47,2.47,0,0,0,.39-1.36,2,2,0,0,0-1.74-2.15,2,2,0,0,0-1.74,2.15,2.45,2.45,0,0,0,.42,1.4,1.43,1.43,0,0,0-.47-.08,2.2,2.2,0,0,0,0,4.3,1.77,1.77,0,0,0,1.59-1.28h0v0a2.78,2.78,0,0,1-2.23,2.89l0,.14h4.92l0-.13a2.78,2.78,0,0,1-2.34-2.9v0h0A1.77,1.77,0,0,0,34,50Z"/><path d="M34,69.6a2.2,2.2,0,0,0,0-4.3,1.43,1.43,0,0,0-.34,0A2.47,2.47,0,0,0,34.07,64a2,2,0,0,0-1.74-2.15A2,2,0,0,0,30.58,64a2.45,2.45,0,0,0,.42,1.4,1.43,1.43,0,0,0-.47-.08,2.2,2.2,0,0,0,0,4.3,1.77,1.77,0,0,0,1.59-1.28h0v0a2.78,2.78,0,0,1-2.23,2.89l0,.14h4.92l0-.13a2.78,2.78,0,0,1-2.34-2.9v0h0A1.77,1.77,0,0,0,34,69.6Z"/></svg>