<svg xmlns="http://www.w3.org/2000/svg" viewBox="0 0 64 94"><title>3Diamond</title><rect width="64" height="94" rx="4" ry="4" style="fill:#fffce7"/><polygon points="6.98 13.85 6.98 13.85 4.5 10.02 2.01 13.85 2.01 13.85 4.5 17.68 6.98 13.85" style="fill:#a12337"/><polygon points="57.23 80.11 57.23 80.11 59.71 83.94 62.2 80.11 62.2 80.11 59.71 76.28 57.23 80.11" style="fill:#a12337"/><polygon points="35.49 27.28 35.49 27.28 32 21.92 28.51 27.28 28.51 27.28 32 32.65 35.49 27.28" style="fill:#a12337"/><polygon points="35.49 46.83 35.49 46.83 32 41.46 28.51 46.83 28.51 46.83 32 52.19 35.49 46.83" style="fill:#a12337"/><polygon points="35.49 66.37 35.49 66.37 32 61 28.51 66.37 28.51 66.37 32 71.74 35.49 66.37" style="fill:#a12337"/><path d="M2.71,4.36a2.34,2.34,0,0,1,.24-1.44,1.86,1.86,0,0,1,1.49-.57,1.78,1.78,0,0,1,1.37.49,1.82,1.82,0,0,1,.37,1.29c0,.88-.12,1.34-1,1.48.94.18,1.12.49,1.12,2a1.5,1.5,0,0,1-.53,1.3,2,2,0,0,1-1.37.41A2.74,2.74,0,0,1,3.2,9c-.74-.38-.65-1.25-.64-1.85h1a5.67,5.67,0,0,0,0,.63c0,.21,0,.74.83.74s.89-.56.89-.9c0-.12,0-.49,0-.68,0-.75-.4-1-1.09-1H3.84V5.28c.73,0,1.33,0,1.33-1,0-.82-.06-1.21-.77-1.21s-.78.55-.73,1.27Z" style="fill:#a12337"/><path d="M54.85,90.5H8A4.5,4.5,0,0,1,3.5,86V19.19h1V86A3.5,3.5,0,0,0,8,89.5H54.85Z"/><path d="M60.5,74.82h-1V8A3.5,3.5,0,0,0,56,4.5H9.15v-1H56A4.5,4.5,0,0,1,60.5,8Z"/><path d="M61,89.65a2.34,2.34,0,0,1-.24,1.44,1.85,1.85,0,0,1-1.49.57,1.78,1.78,0,0,1-1.37-.49,1.82,1.82,0,0,1-.37-1.29c0-.88.12-1.34,1-1.48-.93-.18-1.12-.49-1.12-2a1.5,1.5,0,0,1,.53-1.29,2,2,0,0,1,1.37-.41,2.74,2.74,0,0,1,1.21.26c.74.38.65,1.25.63,1.85h-1a5.67,5.67,0,0,0,0-.63c0-.21,0-.74-.83-.74s-.89.56-.89.9c0,.13,0,.49,0,.68,0,.75.39,1,1.09,1h.32v.76c-.73,0-1.33,0-1.33,1,0,.82.06,1.21.77,1.21s.78-.55.73-1.27Z" style="fill:#a12337"/></svg>