<svg xmlns="http://www.w3.org/2000/svg" viewBox="0 0 64 94"><title>3Heart</title><rect width="64" height="94" rx="4" ry="4" style="fill:#fffce7"/><path d="M7.34,12.08a1.63,1.63,0,0,0-1.43-1.77,1.49,1.49,0,0,0-1.43,1,1.49,1.49,0,0,0-1.43-1,1.63,1.63,0,0,0-1.43,1.77,4,4,0,0,0,1,2.23C3.31,15.2,4.48,17,4.48,17h0s1.17-1.76,1.85-2.64A4,4,0,0,0,7.34,12.08Z" style="fill:#a12337"/><path d="M2.71,4.36a2.34,2.34,0,0,1,.24-1.44,1.85,1.85,0,0,1,1.49-.57,1.78,1.78,0,0,1,1.37.49,1.82,1.82,0,0,1,.37,1.29c0,.88-.12,1.34-1,1.48.94.18,1.12.49,1.12,2a1.5,1.5,0,0,1-.53,1.3,2,2,0,0,1-1.37.41A2.74,2.74,0,0,1,3.2,9c-.74-.38-.65-1.25-.64-1.85h1a5.66,5.66,0,0,0,0,.63c0,.21,0,.74.83.74s.89-.56.89-.9c0-.12,0-.49,0-.68,0-.75-.4-1-1.09-1H3.84V5.28c.73,0,1.33,0,1.33-1,0-.82-.06-1.21-.77-1.21s-.78.55-.73,1.27Z" style="fill:#a12337"/><path d="M54.85,90.5H8A4.5,4.5,0,0,1,3.5,86V19.19h1V86A3.5,3.5,0,0,0,8,89.5H54.85Z"/><path d="M60.5,74.82h-1V8A3.5,3.5,0,0,0,56,4.5H9.15v-1H56A4.5,4.5,0,0,1,60.5,8Z"/><path d="M62.19,81.94a1.63,1.63,0,0,1-1.43,1.77,1.49,1.49,0,0,1-1.43-1,1.49,1.49,0,0,1-1.43,1,1.63,1.63,0,0,1-1.43-1.77,4,4,0,0,1,1-2.23c.69-.89,1.85-2.64,1.85-2.64h0s1.17,1.76,1.85,2.64A4,4,0,0,1,62.19,81.94Z" style="fill:#a12337"/><path d="M61,89.65a2.34,2.34,0,0,1-.24,1.44,1.86,1.86,0,0,1-1.49.57,1.78,1.78,0,0,1-1.37-.49,1.82,1.82,0,0,1-.37-1.29c0-.88.12-1.34,1-1.48-.93-.18-1.12-.49-1.12-2a1.5,1.5,0,0,1,.53-1.3,2,2,0,0,1,1.37-.41,2.74,2.74,0,0,1,1.21.26c.74.38.65,1.25.63,1.85h-1a5.66,5.66,0,0,0,0-.63c0-.21,0-.74-.83-.74s-.89.56-.89.9c0,.13,0,.49,0,.68,0,.75.39,1,1.09,1h.32v.76c-.73,0-1.33,0-1.33,1,0,.82.06,1.21.77,1.21s.78-.55.73-1.27Z" style="fill:#a12337"/><path d="M36.3,25a2.44,2.44,0,0,0-2.15-2.65A2.23,2.23,0,0,0,32,23.8a2.23,2.23,0,0,0-2.15-1.45A2.44,2.44,0,0,0,27.7,25a6,6,0,0,0,1.52,3.35c1,1.33,2.78,4,2.78,4h0s1.75-2.64,2.78-4A6,6,0,0,0,36.3,25Z" style="fill:#a12337"/><path d="M36.3,44.67A2.44,2.44,0,0,0,34.15,42,2.23,2.23,0,0,0,32,43.47,2.23,2.23,0,0,0,29.85,42a2.44,2.44,0,0,0-2.15,2.65A6,6,0,0,0,29.22,48c1,1.33,2.78,4,2.78,4h0s1.75-2.64,2.78-4A6,6,0,0,0,36.3,44.67Z" style="fill:#a12337"/><path d="M36.3,64.34a2.44,2.44,0,0,0-2.15-2.65A2.23,2.23,0,0,0,32,63.13a2.23,2.23,0,0,0-2.15-1.45,2.44,2.44,0,0,0-2.15,2.65,6,6,0,0,0,1.52,3.35c1,1.33,2.78,4,2.78,4h0s1.75-2.64,2.78-4A6,6,0,0,0,36.3,64.34Z" style="fill:#a12337"/></svg>