<svg xmlns="http://www.w3.org/2000/svg" viewBox="0 0 64 94"><title>3Spade</title><rect width="64" height="94" rx="4" ry="4" style="fill:#fffce7"/><path d="M5.78,16.15a1.49,1.49,0,0,0,1.31-1.61,3.62,3.62,0,0,0-.92-2c-.63-.81-1.69-2.41-1.69-2.41h0s-1.06,1.6-1.69,2.41a3.62,3.62,0,0,0-.92,2,1.49,1.49,0,0,0,1.31,1.61,1.38,1.38,0,0,0,1.18-.62,1.85,1.85,0,0,1-1.5,1.65l0,.1H6.18v-.09A1.84,1.84,0,0,1,4.6,15.53,1.38,1.38,0,0,0,5.78,16.15Z"/><path d="M60.59,77.82a1.49,1.49,0,0,1,1.31,1.61,3.62,3.62,0,0,1-.92,2c-.63.81-1.69,2.41-1.69,2.41h0s-1.06-1.6-1.69-2.41a3.62,3.62,0,0,1-.92-2A1.49,1.49,0,0,1,58,77.82a1.38,1.38,0,0,1,1.18.62,1.85,1.85,0,0,0-1.5-1.65l0-.1H61v.09a1.84,1.84,0,0,0-1.57,1.65A1.38,1.38,0,0,1,60.59,77.82Z"/><path d="M2.71,4.36a2.34,2.34,0,0,1,.24-1.44,1.85,1.85,0,0,1,1.49-.57,1.78,1.78,0,0,1,1.37.49,1.82,1.82,0,0,1,.37,1.29c0,.88-.12,1.34-1,1.48.94.18,1.12.49,1.12,2a1.5,1.5,0,0,1-.53,1.3,2,2,0,0,1-1.37.41A2.74,2.74,0,0,1,3.2,9c-.74-.38-.65-1.25-.64-1.85h1a5.66,5.66,0,0,0,0,.63c0,.21,0,.74.83.74s.89-.56.89-.9c0-.12,0-.49,0-.68,0-.75-.4-1-1.09-1H3.84V5.28c.73,0,1.33,0,1.33-1,0-.82-.06-1.21-.77-1.21s-.78.55-.73,1.27Z"/><path d="M54.85,90.5H8A4.5,4.5,0,0,1,3.5,86V19.19h1V86A3.5,3.5,0,0,0,8,89.5H54.85Z"/><path d="M60.5,74.82h-1V8A3.5,3.5,0,0,0,56,4.5H9.15v-1H56A4.5,4.5,0,0,1,60.5,8Z"/><path d="M61,89.65a2.34,2.34,0,0,1-.24,1.44,1.85,1.85,0,0,1-1.49.57,1.78,1.78,0,0,1-1.37-.49,1.82,1.82,0,0,1-.37-1.29c0-.88.12-1.34,1-1.48-.93-.18-1.12-.49-1.12-2a1.5,1.5,0,0,1,.53-1.29,2,2,0,0,1,1.37-.41,2.74,2.74,0,0,1,1.21.26c.74.38.65,1.25.63,1.85h-1a5.67,5.67,0,0,0,0-.63c0-.21,0-.74-.83-.74s-.89.56-.89.9c0,.13,0,.49,0,.68,0,.75.39,1,1.09,1h.32v.76c-.73,0-1.33,0-1.33,1,0,.82.06,1.21.77,1.21s.78-.55.73-1.27Z"/><path d="M34,30.5a2,2,0,0,0,1.74-2.15,4.82,4.82,0,0,0-1.23-2.71c-.84-1.08-2.25-3.21-2.25-3.21h0S30.82,24.56,30,25.64a4.82,4.82,0,0,0-1.23,2.71A2,2,0,0,0,30.5,30.5a1.84,1.84,0,0,0,1.57-.83,2.46,2.46,0,0,1-2,2.19l0,.13h4.46l0-.12a2.45,2.45,0,0,1-2.08-2.2A1.84,1.84,0,0,0,34,30.5Z"/><path d="M34,50.19A2,2,0,0,0,35.71,48a4.82,4.82,0,0,0-1.23-2.71c-.84-1.08-2.25-3.21-2.25-3.21h0S30.82,44.25,30,45.33A4.82,4.82,0,0,0,28.76,48a2,2,0,0,0,1.74,2.15,1.84,1.84,0,0,0,1.57-.83,2.46,2.46,0,0,1-2,2.19l0,.13h4.46l0-.12a2.45,2.45,0,0,1-2.08-2.2A1.84,1.84,0,0,0,34,50.19Z"/><path d="M34,69.88a2,2,0,0,0,1.74-2.15A4.82,4.82,0,0,0,34.49,65c-.84-1.08-2.25-3.21-2.25-3.21h0S30.82,63.94,30,65a4.82,4.82,0,0,0-1.23,2.71,2,2,0,0,0,1.74,2.15A1.84,1.84,0,0,0,32.07,69a2.46,2.46,0,0,1-2,2.19l0,.13h4.46l0-.12A2.45,2.45,0,0,1,32.41,69,1.84,1.84,0,0,0,34,69.88Z"/></svg>