<svg xmlns="http://www.w3.org/2000/svg" viewBox="0 0 64 94"><title>4Club</title><rect width="64" height="94" rx="4" ry="4" style="fill:#fffce7"/><path d="M5.64,9.22h-1V7.7H2.45V6.77L4.16,2.43H5.64V7h.74V7.7H5.64ZM4.64,7l0-3.78L3.24,7Z"/><path d="M54.85,90.5H8A4.5,4.5,0,0,1,3.5,86V19.19h1V86A3.5,3.5,0,0,0,8,89.5H54.85Z"/><path d="M60.5,74.82h-1V8A3.5,3.5,0,0,0,56,4.5H9.15v-1H56A4.5,4.5,0,0,1,60.5,8Z"/><path d="M58.05,84.79h1V86.3h2.2v.93l-1.71,4.34H58.05V87h-.74V86.3h.74ZM59,87l0,3.78L60.45,87Z"/><path d="M5.77,16.17a1.48,1.48,0,0,0,1.31-1.61,1.48,1.48,0,0,0-1.31-1.61,1.07,1.07,0,0,0-.26,0,1.85,1.85,0,0,0,.3-1A1.48,1.48,0,0,0,4.5,10.34,1.48,1.48,0,0,0,3.2,12a1.84,1.84,0,0,0,.32,1,1.07,1.07,0,0,0-.35-.06,1.48,1.48,0,0,0-1.31,1.61,1.48,1.48,0,0,0,1.31,1.61,1.33,1.33,0,0,0,1.19-1h0v0a2.09,2.09,0,0,1-1.68,2.17l0,.11H6.35v-.1a2.08,2.08,0,0,1-1.75-2.18v0h0A1.33,1.33,0,0,0,5.77,16.17Z"/><path d="M58.11,78a1.65,1.65,0,0,0,0,3.23,1.07,1.07,0,0,0,.26,0,1.85,1.85,0,0,0-.3,1,1.34,1.34,0,1,0,2.61,0,1.84,1.84,0,0,0-.32-1,1.07,1.07,0,0,0,.35.06,1.65,1.65,0,0,0,0-3.23,1.33,1.33,0,0,0-1.19,1h0v0a2.09,2.09,0,0,1,1.68-2.17l0-.11H57.53v.1a2.08,2.08,0,0,1,1.75,2.18v0h0A1.33,1.33,0,0,0,58.11,78Z"/><path d="M20.55,30.41a2,2,0,0,0,1.74-2.15,2,2,0,0,0-1.74-2.15,1.43,1.43,0,0,0-.34,0,2.47,2.47,0,0,0,.39-1.36,2,2,0,0,0-1.74-2.15,2,2,0,0,0-1.74,2.15,2.45,2.45,0,0,0,.42,1.4,1.43,1.43,0,0,0-.47-.08,2,2,0,0,0-1.74,2.15,2,2,0,0,0,1.74,2.15,1.77,1.77,0,0,0,1.59-1.28h0v0a2.78,2.78,0,0,1-2.23,2.89l0,.14h4.92l0-.13A2.78,2.78,0,0,1,19,29.18v0h0A1.77,1.77,0,0,0,20.55,30.41Z"/><path d="M20.55,69.6a2.2,2.2,0,0,0,0-4.3,1.43,1.43,0,0,0-.34,0A2.47,2.47,0,0,0,20.6,64a2,2,0,0,0-1.74-2.15A2,2,0,0,0,17.12,64a2.45,2.45,0,0,0,.42,1.4,1.43,1.43,0,0,0-.47-.08,2.2,2.2,0,0,0,0,4.3,1.77,1.77,0,0,0,1.59-1.28h0v0a2.78,2.78,0,0,1-2.23,2.89l0,.14h4.92l0-.13A2.78,2.78,0,0,1,19,68.37v0h0A1.77,1.77,0,0,0,20.55,69.6Z"/><path d="M47.09,30.41a2,2,0,0,0,1.74-2.15,2,2,0,0,0-1.74-2.15,1.43,1.43,0,0,0-.34,0,2.47,2.47,0,0,0,.39-1.36,2,2,0,0,0-1.74-2.15,2,2,0,0,0-1.74,2.15,2.45,2.45,0,0,0,.42,1.4,1.43,1.43,0,0,0-.47-.08,2,2,0,0,0-1.74,2.15,2,2,0,0,0,1.74,2.15,1.77,1.77,0,0,0,1.59-1.28h0v0A2.78,2.78,0,0,1,43,32.07l0,.14h4.92l0-.13a2.78,2.78,0,0,1-2.34-2.9v0h0A1.77,1.77,0,0,0,47.09,30.41Z"/><path d="M47.09,69.6a2.2,2.2,0,0,0,0-4.3,1.43,1.43,0,0,0-.34,0A2.47,2.47,0,0,0,47.14,64a2,2,0,0,0-1.74-2.15A2,2,0,0,0,43.66,64a2.45,2.45,0,0,0,.42,1.4,1.43,1.43,0,0,0-.47-.08,2.2,2.2,0,0,0,0,4.3,1.77,1.77,0,0,0,1.59-1.28h0v0A2.78,2.78,0,0,1,43,71.26l0,.14h4.92l0-.13a2.78,2.78,0,0,1-2.34-2.9v0h0A1.77,1.77,0,0,0,47.09,69.6Z"/></svg>