<svg xmlns="http://www.w3.org/2000/svg" viewBox="0 0 64 94"><title>4Diamond</title><rect width="64" height="94" rx="4" ry="4" style="fill:#fffce7"/><polygon points="6.98 13.85 6.98 13.85 4.5 10.02 2.01 13.85 2.01 13.85 4.5 17.68 6.98 13.85" style="fill:#a12337"/><polygon points="57.23 80.11 57.23 80.11 59.71 83.94 62.2 80.11 62.2 80.11 59.71 76.28 57.23 80.11" style="fill:#a12337"/><polygon points="22.35 27.28 22.35 27.28 18.87 21.92 15.38 27.28 15.38 27.28 18.87 32.65 22.35 27.28" style="fill:#a12337"/><polygon points="22.35 66.37 22.35 66.37 18.87 61 15.38 66.37 15.38 66.37 18.87 71.74 22.35 66.37" style="fill:#a12337"/><polygon points="49.35 27.28 49.35 27.28 45.87 21.92 42.38 27.28 42.38 27.28 45.87 32.65 49.35 27.28" style="fill:#a12337"/><polygon points="49.35 66.37 49.35 66.37 45.87 61 42.38 66.37 42.38 66.37 45.87 71.74 49.35 66.37" style="fill:#a12337"/><path d="M5.64,9.22h-1V7.7H2.45V6.77L4.16,2.43H5.64V7h.74V7.7H5.64ZM4.64,7l0-3.78L3.24,7Z" style="fill:#a12337"/><path d="M54.85,90.5H8A4.5,4.5,0,0,1,3.5,86V19.19h1V86A3.5,3.5,0,0,0,8,89.5H54.85Z"/><path d="M60.5,74.82h-1V8A3.5,3.5,0,0,0,56,4.5H9.15v-1H56A4.5,4.5,0,0,1,60.5,8Z"/><path d="M58.05,84.79h1v1.52h2.2v.93l-1.71,4.34H58.05V87h-.74v-.72h.74ZM59,87l0,3.78L60.45,87Z" style="fill:#a12337"/></svg>