<svg xmlns="http://www.w3.org/2000/svg" viewBox="0 0 64 94"><title>4Heart</title><rect width="64" height="94" rx="4" ry="4" style="fill:#fffce7"/><path d="M7.34,12.08a1.63,1.63,0,0,0-1.43-1.77,1.49,1.49,0,0,0-1.43,1,1.49,1.49,0,0,0-1.43-1,1.63,1.63,0,0,0-1.43,1.77,4,4,0,0,0,1,2.23C3.31,15.2,4.48,17,4.48,17h0s1.17-1.76,1.85-2.64A4,4,0,0,0,7.34,12.08Z" style="fill:#a12337"/><path d="M5.64,9.22h-1V7.7H2.45V6.77L4.16,2.44H5.64V7h.74V7.7H5.64ZM4.64,7l0-3.78L3.24,7Z" style="fill:#a12337"/><path d="M54.85,90.5H8A4.5,4.5,0,0,1,3.5,86V19.19h1V86A3.5,3.5,0,0,0,8,89.5H54.85Z"/><path d="M60.5,74.82h-1V8A3.5,3.5,0,0,0,56,4.5H9.15v-1H56A4.5,4.5,0,0,1,60.5,8Z"/><path d="M62.19,81.94a1.63,1.63,0,0,1-1.43,1.77,1.49,1.49,0,0,1-1.43-1,1.49,1.49,0,0,1-1.43,1,1.63,1.63,0,0,1-1.43-1.77,4,4,0,0,1,1-2.23c.69-.89,1.85-2.64,1.85-2.64h0s1.17,1.76,1.85,2.64A4,4,0,0,1,62.19,81.94Z" style="fill:#a12337"/><path d="M58.05,84.79h1v1.52h2.2v.93l-1.71,4.34H58.05V87h-.74v-.72h.74ZM59,87l0,3.78L60.45,87Z" style="fill:#a12337"/><path d="M23.2,25A2.44,2.44,0,0,0,21,22.35,2.23,2.23,0,0,0,18.9,23.8a2.23,2.23,0,0,0-2.15-1.45A2.44,2.44,0,0,0,14.61,25a6,6,0,0,0,1.52,3.35c1,1.33,2.78,4,2.78,4h0s1.75-2.64,2.78-4A6,6,0,0,0,23.2,25Z" style="fill:#a12337"/><path d="M23.2,64.34A2.44,2.44,0,0,0,21,61.68a2.23,2.23,0,0,0-2.15,1.45,2.23,2.23,0,0,0-2.15-1.45,2.44,2.44,0,0,0-2.15,2.65,6,6,0,0,0,1.52,3.35c1,1.33,2.78,4,2.78,4h0s1.75-2.64,2.78-4A6,6,0,0,0,23.2,64.34Z" style="fill:#a12337"/><path d="M49.39,25a2.44,2.44,0,0,0-2.15-2.65A2.23,2.23,0,0,0,45.1,23.8,2.23,2.23,0,0,0,43,22.35,2.44,2.44,0,0,0,40.8,25a6,6,0,0,0,1.52,3.35c1,1.33,2.78,4,2.78,4h0s1.75-2.64,2.78-4A6,6,0,0,0,49.39,25Z" style="fill:#a12337"/><path d="M49.39,64.34a2.44,2.44,0,0,0-2.15-2.65,2.23,2.23,0,0,0-2.15,1.45A2.23,2.23,0,0,0,43,61.68a2.44,2.44,0,0,0-2.15,2.65,6,6,0,0,0,1.52,3.35c1,1.33,2.78,4,2.78,4h0s1.75-2.64,2.78-4A6,6,0,0,0,49.39,64.34Z" style="fill:#a12337"/></svg>