<svg xmlns="http://www.w3.org/2000/svg" viewBox="0 0 64 94"><title>4Spade</title><rect width="64" height="94" rx="4" ry="4" style="fill:#fffce7"/><path d="M5.78,16.15a1.49,1.49,0,0,0,1.31-1.61,3.62,3.62,0,0,0-.92-2c-.63-.81-1.69-2.41-1.69-2.41h0s-1.06,1.6-1.69,2.41a3.62,3.62,0,0,0-.92,2,1.49,1.49,0,0,0,1.31,1.61,1.38,1.38,0,0,0,1.18-.62,1.85,1.85,0,0,1-1.5,1.65l0,.1H6.18v-.09A1.84,1.84,0,0,1,4.6,15.53,1.38,1.38,0,0,0,5.78,16.15Z"/><path d="M60.59,77.82a1.49,1.49,0,0,1,1.31,1.61,3.62,3.62,0,0,1-.92,2c-.63.81-1.69,2.41-1.69,2.41h0s-1.06-1.6-1.69-2.41a3.62,3.62,0,0,1-.92-2A1.49,1.49,0,0,1,58,77.82a1.38,1.38,0,0,1,1.18.62,1.85,1.85,0,0,0-1.5-1.65l0-.1H61v.09a1.84,1.84,0,0,0-1.57,1.65A1.38,1.38,0,0,1,60.59,77.82Z"/><path d="M5.64,9.22h-1V7.7H2.45V6.77L4.16,2.44H5.64V7h.74V7.7H5.64ZM4.64,7l0-3.78L3.24,7Z"/><path d="M54.85,90.5H8A4.5,4.5,0,0,1,3.5,86V19.19h1V86A3.5,3.5,0,0,0,8,89.5H54.85Z"/><path d="M60.5,74.82h-1V8A3.5,3.5,0,0,0,56,4.5H9.15v-1H56A4.5,4.5,0,0,1,60.5,8Z"/><path d="M58.05,84.79h1V86.3h2.2v.93l-1.71,4.34H58.05V87h-.74V86.3h.74ZM59,87l0,3.78L60.45,87Z"/><path d="M46.92,30.5a2,2,0,0,0,1.74-2.15,4.82,4.82,0,0,0-1.23-2.71c-.84-1.08-2.25-3.21-2.25-3.21h0s-1.41,2.13-2.25,3.21a4.82,4.82,0,0,0-1.23,2.71,2,2,0,0,0,1.74,2.15A1.84,1.84,0,0,0,45,29.67a2.46,2.46,0,0,1-2,2.19L43,32h4.46l0-.12a2.45,2.45,0,0,1-2.08-2.2A1.84,1.84,0,0,0,46.92,30.5Z"/><path d="M46.92,69.88a2,2,0,0,0,1.74-2.15A4.82,4.82,0,0,0,47.44,65c-.84-1.08-2.25-3.21-2.25-3.21h0S43.77,63.94,42.93,65a4.82,4.82,0,0,0-1.23,2.71,2,2,0,0,0,1.74,2.15A1.84,1.84,0,0,0,45,69a2.46,2.46,0,0,1-2,2.19l0,.13h4.46l0-.12A2.45,2.45,0,0,1,45.35,69,1.84,1.84,0,0,0,46.92,69.88Z"/><path d="M20.41,30.5a2,2,0,0,0,1.74-2.15,4.82,4.82,0,0,0-1.23-2.71c-.84-1.08-2.25-3.21-2.25-3.21h0s-1.41,2.13-2.25,3.21a4.82,4.82,0,0,0-1.23,2.71,2,2,0,0,0,1.74,2.15,1.84,1.84,0,0,0,1.57-.83,2.46,2.46,0,0,1-2,2.19l0,.13h4.46l0-.12a2.45,2.45,0,0,1-2.08-2.2A1.84,1.84,0,0,0,20.41,30.5Z"/><path d="M20.41,69.88a2,2,0,0,0,1.74-2.15A4.82,4.82,0,0,0,20.92,65c-.84-1.08-2.25-3.21-2.25-3.21h0S17.25,63.94,16.41,65a4.82,4.82,0,0,0-1.23,2.71,2,2,0,0,0,1.74,2.15A1.84,1.84,0,0,0,18.5,69a2.46,2.46,0,0,1-2,2.19l0,.13h4.46l0-.12A2.45,2.45,0,0,1,18.84,69,1.84,1.84,0,0,0,20.41,69.88Z"/></svg>