<svg xmlns="http://www.w3.org/2000/svg" viewBox="0 0 64 94"><title>5Club</title><rect width="64" height="94" rx="4" ry="4" style="fill:#fffce7"/><path d="M6.2,2.44v.74H3.87L3.8,4.86a1.7,1.7,0,0,1,1-.3A1.44,1.44,0,0,1,6,5.06c.1.13.26.35.26,1.32,0,.36,0,1.34,0,1.63-.11.75-.76,1.29-1.9,1.29C2.53,9.31,2.53,8,2.53,7.62c0-.15,0-.26,0-.38h1c0,.73,0,1.32.85,1.32.73,0,.82-.47.83-.61s0-1.46,0-1.5c0-.52,0-1.12-.8-1.12s-.71.5-.72.8H2.78l.13-3.67Z"/><path d="M54.85,90.5H8A4.5,4.5,0,0,1,3.5,86V19.19h1V86A3.5,3.5,0,0,0,8,89.5H54.85Z"/><path d="M60.5,74.82h-1V8A3.5,3.5,0,0,0,56,4.5H9.15v-1H56A4.5,4.5,0,0,1,60.5,8Z"/><path d="M57.44,91.57v-.74h2.33l.07-1.68a1.7,1.7,0,0,1-1,.3,1.43,1.43,0,0,1-1.19-.5c-.1-.12-.26-.35-.26-1.32,0-.36,0-1.34,0-1.63.11-.75.76-1.29,1.89-1.29,1.82,0,1.82,1.26,1.82,1.69,0,.15,0,.26,0,.38h-1c0-.73,0-1.32-.85-1.32-.73,0-.82.47-.83.62s0,1.46,0,1.5c0,.52,0,1.12.8,1.12s.71-.5.72-.8h.95l-.13,3.67Z"/><path d="M5.77,16.17a1.48,1.48,0,0,0,1.31-1.61,1.48,1.48,0,0,0-1.31-1.61,1.07,1.07,0,0,0-.26,0,1.85,1.85,0,0,0,.3-1A1.48,1.48,0,0,0,4.5,10.34,1.48,1.48,0,0,0,3.2,12a1.84,1.84,0,0,0,.32,1,1.07,1.07,0,0,0-.35-.06,1.48,1.48,0,0,0-1.31,1.61,1.48,1.48,0,0,0,1.31,1.61,1.33,1.33,0,0,0,1.19-1h0v0a2.09,2.09,0,0,1-1.68,2.17l0,.11H6.35v-.1a2.08,2.08,0,0,1-1.75-2.18v0h0A1.33,1.33,0,0,0,5.77,16.17Z"/><path d="M58.11,78a1.65,1.65,0,0,0,0,3.23,1.07,1.07,0,0,0,.26,0,1.85,1.85,0,0,0-.3,1,1.34,1.34,0,1,0,2.61,0,1.84,1.84,0,0,0-.32-1,1.07,1.07,0,0,0,.35.06,1.65,1.65,0,0,0,0-3.23,1.33,1.33,0,0,0-1.19,1h0v0a2.09,2.09,0,0,1,1.68-2.17l0-.11H57.53v.1a2.08,2.08,0,0,1,1.75,2.18v0h0A1.33,1.33,0,0,0,58.11,78Z"/><path d="M20.55,30.41a2,2,0,0,0,1.74-2.15,2,2,0,0,0-1.74-2.15,1.43,1.43,0,0,0-.34,0,2.47,2.47,0,0,0,.39-1.36,2,2,0,0,0-1.74-2.15,2,2,0,0,0-1.74,2.15,2.45,2.45,0,0,0,.42,1.4,1.43,1.43,0,0,0-.47-.08,2,2,0,0,0-1.74,2.15,2,2,0,0,0,1.74,2.15,1.77,1.77,0,0,0,1.59-1.28h0v0a2.78,2.78,0,0,1-2.23,2.89l0,.14h4.92l0-.13A2.78,2.78,0,0,1,19,29.18v0h0A1.77,1.77,0,0,0,20.55,30.41Z"/><path d="M20.55,69.6a2.2,2.2,0,0,0,0-4.3,1.43,1.43,0,0,0-.34,0A2.47,2.47,0,0,0,20.6,64a2,2,0,0,0-1.74-2.15A2,2,0,0,0,17.12,64a2.45,2.45,0,0,0,.42,1.4,1.43,1.43,0,0,0-.47-.08,2.2,2.2,0,0,0,0,4.3,1.77,1.77,0,0,0,1.59-1.28h0v0a2.78,2.78,0,0,1-2.23,2.89l0,.14h4.92l0-.13A2.78,2.78,0,0,1,19,68.37v0h0A1.77,1.77,0,0,0,20.55,69.6Z"/><path d="M47.09,30.41a2,2,0,0,0,1.74-2.15,2,2,0,0,0-1.74-2.15,1.43,1.43,0,0,0-.34,0,2.47,2.47,0,0,0,.39-1.36,2,2,0,0,0-1.74-2.15,2,2,0,0,0-1.74,2.15,2.45,2.45,0,0,0,.42,1.4,1.43,1.43,0,0,0-.47-.08,2,2,0,0,0-1.74,2.15,2,2,0,0,0,1.74,2.15,1.77,1.77,0,0,0,1.59-1.28h0v0A2.78,2.78,0,0,1,43,32.07l0,.14h4.92l0-.13a2.78,2.78,0,0,1-2.34-2.9v0h0A1.77,1.77,0,0,0,47.09,30.41Z"/><path d="M33.74,50a2.2,2.2,0,0,0,0-4.3,1.43,1.43,0,0,0-.34,0,2.47,2.47,0,0,0,.39-1.36A2,2,0,0,0,32,42.21a2,2,0,0,0-1.74,2.15,2.45,2.45,0,0,0,.42,1.4,1.43,1.43,0,0,0-.47-.08,2.2,2.2,0,0,0,0,4.3,1.77,1.77,0,0,0,1.59-1.28h0v0a2.78,2.78,0,0,1-2.23,2.89l0,.14h4.92l0-.13a2.78,2.78,0,0,1-2.34-2.9v0h0A1.77,1.77,0,0,0,33.74,50Z"/><path d="M47.09,69.6a2.2,2.2,0,0,0,0-4.3,1.43,1.43,0,0,0-.34,0A2.47,2.47,0,0,0,47.14,64a2,2,0,0,0-1.74-2.15A2,2,0,0,0,43.66,64a2.45,2.45,0,0,0,.42,1.4,1.43,1.43,0,0,0-.47-.08,2.2,2.2,0,0,0,0,4.3,1.77,1.77,0,0,0,1.59-1.28h0v0A2.78,2.78,0,0,1,43,71.26l0,.14h4.92l0-.13a2.78,2.78,0,0,1-2.34-2.9v0h0A1.77,1.77,0,0,0,47.09,69.6Z"/></svg>