<svg xmlns="http://www.w3.org/2000/svg" viewBox="0 0 64 94"><title>5Diamond</title><rect width="64" height="94" rx="4" ry="4" style="fill:#fffce7"/><polygon points="6.98 13.85 6.98 13.85 4.5 10.02 2.01 13.85 2.01 13.85 4.5 17.68 6.98 13.85" style="fill:#a12337"/><polygon points="57.23 80.11 57.23 80.11 59.71 83.94 62.2 80.11 62.2 80.11 59.71 76.28 57.23 80.11" style="fill:#a12337"/><polygon points="22.35 27.28 22.35 27.28 18.87 21.92 15.38 27.28 15.38 27.28 18.87 32.65 22.35 27.28" style="fill:#a12337"/><polygon points="35.49 47 35.49 47 32 41.63 28.51 47 28.51 47 32 52.37 35.49 47" style="fill:#a12337"/><polygon points="22.35 66.37 22.35 66.37 18.87 61 15.38 66.37 15.38 66.37 18.87 71.74 22.35 66.37" style="fill:#a12337"/><polygon points="49.35 27.28 49.35 27.28 45.87 21.92 42.38 27.28 42.38 27.28 45.87 32.65 49.35 27.28" style="fill:#a12337"/><polygon points="49.35 66.37 49.35 66.37 45.87 61 42.38 66.37 42.38 66.37 45.87 71.74 49.35 66.37" style="fill:#a12337"/><path d="M6.2,2.44v.74H3.87L3.8,4.86a1.7,1.7,0,0,1,1-.3A1.44,1.44,0,0,1,6,5.06c.1.13.26.35.26,1.32,0,.36,0,1.34,0,1.63-.11.75-.76,1.29-1.9,1.29C2.53,9.31,2.53,8,2.53,7.62c0-.15,0-.26,0-.38h1c0,.73,0,1.32.85,1.32.73,0,.82-.47.83-.61s0-1.46,0-1.5c0-.52,0-1.12-.8-1.12s-.71.5-.72.8H2.78l.13-3.67Z" style="fill:#a12337"/><path d="M54.85,90.5H8A4.5,4.5,0,0,1,3.5,86V19.19h1V86A3.5,3.5,0,0,0,8,89.5H54.85Z"/><path d="M60.5,74.82h-1V8A3.5,3.5,0,0,0,56,4.5H9.15v-1H56A4.5,4.5,0,0,1,60.5,8Z"/><path d="M57.44,91.57v-.74h2.33l.07-1.68a1.7,1.7,0,0,1-1,.3,1.43,1.43,0,0,1-1.19-.5c-.1-.12-.26-.35-.26-1.32,0-.36,0-1.34,0-1.63.11-.75.76-1.29,1.89-1.29,1.82,0,1.82,1.26,1.82,1.69,0,.15,0,.26,0,.38h-1c0-.73,0-1.32-.85-1.32-.73,0-.82.47-.83.62s0,1.46,0,1.5c0,.52,0,1.12.8,1.12s.71-.5.72-.8h.95l-.13,3.67Z" style="fill:#a12337"/></svg>