<svg xmlns="http://www.w3.org/2000/svg" viewBox="0 0 64 94"><title>5Heart</title><rect width="64" height="94" rx="4" ry="4" style="fill:#fffce7"/><path d="M7.34,12.08a1.63,1.63,0,0,0-1.43-1.77,1.49,1.49,0,0,0-1.43,1,1.49,1.49,0,0,0-1.43-1,1.63,1.63,0,0,0-1.43,1.77,4,4,0,0,0,1,2.23C3.31,15.2,4.48,17,4.48,17h0s1.17-1.76,1.85-2.64A4,4,0,0,0,7.34,12.08Z" style="fill:#a12337"/><path d="M6.2,2.44v.74H3.87L3.8,4.86a1.7,1.7,0,0,1,1-.3A1.44,1.44,0,0,1,6,5.06c.1.12.26.35.26,1.32,0,.36,0,1.34,0,1.63-.11.75-.76,1.29-1.9,1.29C2.53,9.31,2.53,8,2.53,7.62c0-.15,0-.26,0-.38h1c0,.73,0,1.31.85,1.31.73,0,.82-.47.83-.61s0-1.46,0-1.5c0-.52,0-1.12-.8-1.12s-.71.5-.72.8H2.78l.13-3.67Z" style="fill:#a12337"/><path d="M54.85,90.5H8A4.5,4.5,0,0,1,3.5,86V19.19h1V86A3.5,3.5,0,0,0,8,89.5H54.85Z"/><path d="M60.5,74.82h-1V8A3.5,3.5,0,0,0,56,4.5H9.15v-1H56A4.5,4.5,0,0,1,60.5,8Z"/><path d="M62.19,81.94a1.63,1.63,0,0,1-1.43,1.77,1.49,1.49,0,0,1-1.43-1,1.49,1.49,0,0,1-1.43,1,1.63,1.63,0,0,1-1.43-1.77,4,4,0,0,1,1-2.23c.69-.89,1.85-2.64,1.85-2.64h0s1.17,1.76,1.85,2.64A4,4,0,0,1,62.19,81.94Z" style="fill:#a12337"/><path d="M57.44,91.57v-.74h2.33l.07-1.68a1.71,1.71,0,0,1-1,.3,1.43,1.43,0,0,1-1.19-.5c-.1-.12-.26-.35-.26-1.32,0-.36,0-1.34,0-1.63.11-.75.76-1.29,1.89-1.29,1.82,0,1.82,1.26,1.82,1.69,0,.15,0,.26,0,.38h-1c0-.73,0-1.31-.85-1.31-.73,0-.82.47-.83.61s0,1.46,0,1.5c0,.52,0,1.12.8,1.12s.71-.5.72-.8h.95l-.13,3.67Z" style="fill:#a12337"/><path d="M36.3,44.67A2.44,2.44,0,0,0,34.15,42,2.23,2.23,0,0,0,32,43.47,2.23,2.23,0,0,0,29.85,42a2.44,2.44,0,0,0-2.15,2.65A6,6,0,0,0,29.22,48c1,1.33,2.78,4,2.78,4h0s1.75-2.64,2.78-4A6,6,0,0,0,36.3,44.67Z" style="fill:#a12337"/><path d="M23.2,25A2.44,2.44,0,0,0,21,22.35,2.23,2.23,0,0,0,18.9,23.8a2.23,2.23,0,0,0-2.15-1.45A2.44,2.44,0,0,0,14.61,25a6,6,0,0,0,1.52,3.35c1,1.33,2.78,4,2.78,4h0s1.75-2.64,2.78-4A6,6,0,0,0,23.2,25Z" style="fill:#a12337"/><path d="M23.2,64.34A2.44,2.44,0,0,0,21,61.68a2.23,2.23,0,0,0-2.15,1.45,2.23,2.23,0,0,0-2.15-1.45,2.44,2.44,0,0,0-2.15,2.65,6,6,0,0,0,1.52,3.35c1,1.33,2.78,4,2.78,4h0s1.75-2.64,2.78-4A6,6,0,0,0,23.2,64.34Z" style="fill:#a12337"/><path d="M49.39,25a2.44,2.44,0,0,0-2.15-2.65A2.23,2.23,0,0,0,45.1,23.8,2.23,2.23,0,0,0,43,22.35,2.44,2.44,0,0,0,40.8,25a6,6,0,0,0,1.52,3.35c1,1.33,2.78,4,2.78,4h0s1.75-2.64,2.78-4A6,6,0,0,0,49.39,25Z" style="fill:#a12337"/><path d="M49.39,64.34a2.44,2.44,0,0,0-2.15-2.65,2.23,2.23,0,0,0-2.15,1.45A2.23,2.23,0,0,0,43,61.68a2.44,2.44,0,0,0-2.15,2.65,6,6,0,0,0,1.52,3.35c1,1.33,2.78,4,2.78,4h0s1.75-2.64,2.78-4A6,6,0,0,0,49.39,64.34Z" style="fill:#a12337"/></svg>