<svg xmlns="http://www.w3.org/2000/svg" viewBox="0 0 64 94"><title>6Diamond</title><rect width="64" height="94" rx="4" ry="4" style="fill:#fffce7"/><polygon points="6.98 13.85 6.98 13.85 4.5 10.02 2.01 13.85 2.01 13.85 4.5 17.68 6.98 13.85" style="fill:#a12337"/><polygon points="57.23 80.11 57.23 80.11 59.71 83.94 62.2 80.11 62.2 80.11 59.71 76.28 57.23 80.11" style="fill:#a12337"/><polygon points="22.85 27.28 22.85 27.28 19.37 21.92 15.88 27.28 15.88 27.28 19.37 32.65 22.85 27.28" style="fill:#a12337"/><polygon points="22.85 46.83 22.85 46.83 19.37 41.46 15.88 46.83 15.88 46.83 19.37 52.19 22.85 46.83" style="fill:#a12337"/><polygon points="22.85 66.37 22.85 66.37 19.37 61 15.88 66.37 15.88 66.37 19.37 71.74 22.85 66.37" style="fill:#a12337"/><polygon points="49.85 27.28 49.85 27.28 46.37 21.92 42.88 27.28 42.88 27.28 46.37 32.65 49.85 27.28" style="fill:#a12337"/><polygon points="49.85 46.83 49.85 46.83 46.37 41.46 42.88 46.83 42.88 46.83 46.37 52.19 49.85 46.83" style="fill:#a12337"/><polygon points="49.85 66.37 49.85 66.37 46.37 61 42.88 66.37 42.88 66.37 46.37 71.74 49.85 66.37" style="fill:#a12337"/><path d="M2.6,4.6a3.93,3.93,0,0,1,.07-1.19C2.76,3.07,3,2.36,4.4,2.36a2,2,0,0,1,1.43.45,1.48,1.48,0,0,1,.36,1.25h-1c0-.56,0-1-.78-1s-.76.36-.79.47a5,5,0,0,0-.06,1.19v.51A1.56,1.56,0,0,1,4.76,4.8a1.66,1.66,0,0,1,1.09.36c.38.32.44.66.44,1.75A3.8,3.8,0,0,1,6,8.7a2,2,0,0,1-1.64.6c-.29,0-1.5,0-1.73-1.06a6.77,6.77,0,0,1-.06-1.2ZM5.24,6.14c0-.14-.07-.64-.83-.64s-.83.56-.83,1.59a7.54,7.54,0,0,0,0,.94c0,.13.12.54.83.54s.82-.5.82-1.49C5.26,6.91,5.25,6.27,5.24,6.14Z" style="fill:#a12337"/><path d="M54.85,90.5H8A4.5,4.5,0,0,1,3.5,86V19.19h1V86A3.5,3.5,0,0,0,8,89.5H54.85Z"/><path d="M60.5,74.82h-1V8A3.5,3.5,0,0,0,56,4.5H9.15v-1H56A4.5,4.5,0,0,1,60.5,8Z"/><path d="M61,89.41a3.88,3.88,0,0,1-.07,1.19c-.08.35-.36,1.06-1.73,1.06a2,2,0,0,1-1.43-.45A1.48,1.48,0,0,1,57.4,90h1c0,.56,0,1,.78,1s.76-.35.79-.47A5,5,0,0,0,60,89.25v-.51a1.56,1.56,0,0,1-1.19.48,1.66,1.66,0,0,1-1.09-.37c-.38-.32-.44-.66-.44-1.75a3.8,3.8,0,0,1,.26-1.79,2,2,0,0,1,1.64-.6c.29,0,1.5,0,1.73,1.06A6.67,6.67,0,0,1,61,87Zm-2.64-1.54c0,.14.07.64.83.64S60,88,60,86.93A7.76,7.76,0,0,0,60,86c0-.12-.12-.54-.83-.54s-.82.5-.82,1.49C58.33,87.11,58.34,87.74,58.35,87.88Z" style="fill:#a12337"/></svg>