<svg xmlns="http://www.w3.org/2000/svg" viewBox="0 0 64 94"><title>6Heart</title><rect width="64" height="94" rx="4" ry="4" style="fill:#fffce7"/><path d="M7.34,12.08a1.63,1.63,0,0,0-1.43-1.77,1.49,1.49,0,0,0-1.43,1,1.49,1.49,0,0,0-1.43-1,1.63,1.63,0,0,0-1.43,1.77,4,4,0,0,0,1,2.23C3.31,15.2,4.48,17,4.48,17h0s1.17-1.76,1.85-2.64A4,4,0,0,0,7.34,12.08Z" style="fill:#a12337"/><path d="M2.6,4.6a3.93,3.93,0,0,1,.07-1.19C2.76,3.07,3,2.36,4.4,2.36a2,2,0,0,1,1.43.45,1.48,1.48,0,0,1,.36,1.25h-1c0-.56,0-1-.78-1s-.76.35-.79.47a5,5,0,0,0-.06,1.19v.51A1.56,1.56,0,0,1,4.76,4.8a1.66,1.66,0,0,1,1.09.36c.38.32.44.66.44,1.75A3.8,3.8,0,0,1,6,8.7a2,2,0,0,1-1.64.6c-.29,0-1.5,0-1.73-1.06a6.77,6.77,0,0,1-.06-1.2ZM5.24,6.14c0-.14-.07-.64-.83-.64s-.83.56-.83,1.59a7.55,7.55,0,0,0,0,.94c0,.12.12.54.83.54s.82-.5.82-1.49C5.26,6.91,5.25,6.27,5.24,6.14Z" style="fill:#a12337"/><path d="M54.85,90.5H8A4.5,4.5,0,0,1,3.5,86V19.19h1V86A3.5,3.5,0,0,0,8,89.5H54.85Z"/><path d="M60.5,74.82h-1V8A3.5,3.5,0,0,0,56,4.5H9.15v-1H56A4.5,4.5,0,0,1,60.5,8Z"/><path d="M62.19,81.94a1.63,1.63,0,0,1-1.43,1.77,1.49,1.49,0,0,1-1.43-1,1.49,1.49,0,0,1-1.43,1,1.63,1.63,0,0,1-1.43-1.77,4,4,0,0,1,1-2.23c.69-.89,1.85-2.64,1.85-2.64h0s1.17,1.76,1.85,2.64A4,4,0,0,1,62.19,81.94Z" style="fill:#a12337"/><path d="M61,89.41a3.88,3.88,0,0,1-.07,1.19c-.08.35-.36,1.06-1.73,1.06a2,2,0,0,1-1.43-.45A1.48,1.48,0,0,1,57.4,90h1c0,.56,0,1,.78,1s.76-.35.79-.47A5,5,0,0,0,60,89.25v-.51a1.56,1.56,0,0,1-1.19.48,1.66,1.66,0,0,1-1.09-.36c-.38-.32-.44-.66-.44-1.75a3.8,3.8,0,0,1,.26-1.79,2,2,0,0,1,1.64-.6c.29,0,1.5,0,1.73,1.06A6.66,6.66,0,0,1,61,87Zm-2.64-1.54c0,.14.07.64.83.64S60,88,60,86.93A7.76,7.76,0,0,0,60,86c0-.12-.12-.54-.83-.54s-.82.5-.82,1.49C58.33,87.11,58.34,87.74,58.35,87.88Z" style="fill:#a12337"/><path d="M23.2,25A2.44,2.44,0,0,0,21,22.35,2.23,2.23,0,0,0,18.9,23.8a2.23,2.23,0,0,0-2.15-1.45A2.44,2.44,0,0,0,14.61,25a6,6,0,0,0,1.52,3.35c1,1.33,2.78,4,2.78,4h0s1.75-2.64,2.78-4A6,6,0,0,0,23.2,25Z" style="fill:#a12337"/><path d="M23.2,44.67A2.44,2.44,0,0,0,21,42a2.23,2.23,0,0,0-2.15,1.45A2.23,2.23,0,0,0,16.76,42a2.44,2.44,0,0,0-2.15,2.65A6,6,0,0,0,16.12,48c1,1.33,2.78,4,2.78,4h0s1.75-2.64,2.78-4A6,6,0,0,0,23.2,44.67Z" style="fill:#a12337"/><path d="M23.2,64.34A2.44,2.44,0,0,0,21,61.68a2.23,2.23,0,0,0-2.15,1.45,2.23,2.23,0,0,0-2.15-1.45,2.44,2.44,0,0,0-2.15,2.65,6,6,0,0,0,1.52,3.35c1,1.33,2.78,4,2.78,4h0s1.75-2.64,2.78-4A6,6,0,0,0,23.2,64.34Z" style="fill:#a12337"/><path d="M49.39,25a2.44,2.44,0,0,0-2.15-2.65A2.23,2.23,0,0,0,45.1,23.8,2.23,2.23,0,0,0,43,22.35,2.44,2.44,0,0,0,40.8,25a6,6,0,0,0,1.52,3.35c1,1.33,2.78,4,2.78,4h0s1.75-2.64,2.78-4A6,6,0,0,0,49.39,25Z" style="fill:#a12337"/><path d="M49.39,44.67A2.44,2.44,0,0,0,47.24,42a2.23,2.23,0,0,0-2.15,1.45A2.23,2.23,0,0,0,43,42a2.44,2.44,0,0,0-2.15,2.65A6,6,0,0,0,42.32,48c1,1.33,2.78,4,2.78,4h0s1.75-2.64,2.78-4A6,6,0,0,0,49.39,44.67Z" style="fill:#a12337"/><path d="M49.39,64.34a2.44,2.44,0,0,0-2.15-2.65,2.23,2.23,0,0,0-2.15,1.45A2.23,2.23,0,0,0,43,61.68a2.44,2.44,0,0,0-2.15,2.65,6,6,0,0,0,1.52,3.35c1,1.33,2.78,4,2.78,4h0s1.75-2.64,2.78-4A6,6,0,0,0,49.39,64.34Z" style="fill:#a12337"/></svg>