<svg xmlns="http://www.w3.org/2000/svg" viewBox="0 0 64 94"><title>6Spade</title><rect width="64" height="94" rx="4" ry="4" style="fill:#fffce7"/><path d="M5.78,16.15a1.49,1.49,0,0,0,1.31-1.61,3.62,3.62,0,0,0-.92-2c-.63-.81-1.69-2.41-1.69-2.41h0s-1.06,1.6-1.69,2.41a3.62,3.62,0,0,0-.92,2,1.49,1.49,0,0,0,1.31,1.61,1.38,1.38,0,0,0,1.18-.62,1.85,1.85,0,0,1-1.5,1.65l0,.1H6.18v-.09A1.84,1.84,0,0,1,4.6,15.53,1.38,1.38,0,0,0,5.78,16.15Z"/><path d="M60.59,77.82a1.49,1.49,0,0,1,1.31,1.61,3.62,3.62,0,0,1-.92,2c-.63.81-1.69,2.41-1.69,2.41h0s-1.06-1.6-1.69-2.41a3.62,3.62,0,0,1-.92-2A1.49,1.49,0,0,1,58,77.82a1.38,1.38,0,0,1,1.18.62,1.85,1.85,0,0,0-1.5-1.65l0-.1H61v.09a1.84,1.84,0,0,0-1.57,1.65A1.38,1.38,0,0,1,60.59,77.82Z"/><path d="M2.6,4.6a3.93,3.93,0,0,1,.07-1.19C2.76,3.07,3,2.36,4.4,2.36a2,2,0,0,1,1.43.45,1.48,1.48,0,0,1,.36,1.25h-1c0-.56,0-1-.78-1s-.76.35-.79.47a5,5,0,0,0-.06,1.19v.51A1.56,1.56,0,0,1,4.76,4.8a1.66,1.66,0,0,1,1.09.36c.38.32.44.66.44,1.75A3.8,3.8,0,0,1,6,8.7a2,2,0,0,1-1.64.6c-.29,0-1.5,0-1.73-1.06a6.77,6.77,0,0,1-.06-1.2ZM5.24,6.14c0-.14-.07-.64-.83-.64s-.83.56-.83,1.59a7.55,7.55,0,0,0,0,.94c0,.12.12.54.83.54s.82-.5.82-1.49C5.26,6.91,5.25,6.27,5.24,6.14Z"/><path d="M54.85,90.5H8A4.5,4.5,0,0,1,3.5,86V19.19h1V86A3.5,3.5,0,0,0,8,89.5H54.85Z"/><path d="M60.5,74.82h-1V8A3.5,3.5,0,0,0,56,4.5H9.15v-1H56A4.5,4.5,0,0,1,60.5,8Z"/><path d="M61,89.42a3.89,3.89,0,0,1-.07,1.19c-.08.35-.36,1.05-1.73,1.05a2,2,0,0,1-1.43-.45A1.48,1.48,0,0,1,57.4,90h1c0,.56,0,1,.78,1s.76-.36.79-.47A5,5,0,0,0,60,89.26v-.51a1.56,1.56,0,0,1-1.19.48,1.66,1.66,0,0,1-1.09-.36c-.38-.32-.44-.66-.44-1.75a3.8,3.8,0,0,1,.26-1.79,2,2,0,0,1,1.64-.6c.29,0,1.5,0,1.73,1.06A6.66,6.66,0,0,1,61,87Zm-2.64-1.54c0,.14.07.64.83.64S60,88,60,86.93A7.75,7.75,0,0,0,60,86c0-.12-.12-.54-.83-.54s-.82.5-.82,1.49C58.33,87.12,58.34,87.75,58.35,87.88Z"/><path d="M46.92,30.5a2,2,0,0,0,1.74-2.15,4.82,4.82,0,0,0-1.23-2.71c-.84-1.08-2.25-3.21-2.25-3.21h0s-1.41,2.13-2.25,3.21a4.82,4.82,0,0,0-1.23,2.71,2,2,0,0,0,1.74,2.15A1.84,1.84,0,0,0,45,29.67a2.46,2.46,0,0,1-2,2.19L43,32h4.46l0-.12a2.45,2.45,0,0,1-2.08-2.2A1.84,1.84,0,0,0,46.92,30.5Z"/><path d="M46.92,50.19A2,2,0,0,0,48.66,48a4.82,4.82,0,0,0-1.23-2.71c-.84-1.08-2.25-3.21-2.25-3.21h0s-1.41,2.13-2.25,3.21A4.82,4.82,0,0,0,41.71,48a2,2,0,0,0,1.74,2.15A1.84,1.84,0,0,0,45,49.36a2.46,2.46,0,0,1-2,2.19l0,.13h4.46l0-.12a2.45,2.45,0,0,1-2.08-2.2A1.84,1.84,0,0,0,46.92,50.19Z"/><path d="M46.92,69.88a2,2,0,0,0,1.74-2.15A4.82,4.82,0,0,0,47.44,65c-.84-1.08-2.25-3.21-2.25-3.21h0S43.77,63.94,42.93,65a4.82,4.82,0,0,0-1.23,2.71,2,2,0,0,0,1.74,2.15A1.84,1.84,0,0,0,45,69a2.46,2.46,0,0,1-2,2.19l0,.13h4.46l0-.12A2.45,2.45,0,0,1,45.35,69,1.84,1.84,0,0,0,46.92,69.88Z"/><path d="M20.41,30.5a2,2,0,0,0,1.74-2.15,4.82,4.82,0,0,0-1.23-2.71c-.84-1.08-2.25-3.21-2.25-3.21h0s-1.41,2.13-2.25,3.21a4.82,4.82,0,0,0-1.23,2.71,2,2,0,0,0,1.74,2.15,1.84,1.84,0,0,0,1.57-.83,2.46,2.46,0,0,1-2,2.19l0,.13h4.46l0-.12a2.45,2.45,0,0,1-2.08-2.2A1.84,1.84,0,0,0,20.41,30.5Z"/><path d="M20.41,50.19A2,2,0,0,0,22.15,48a4.82,4.82,0,0,0-1.23-2.71c-.84-1.08-2.25-3.21-2.25-3.21h0s-1.41,2.13-2.25,3.21A4.82,4.82,0,0,0,15.19,48a2,2,0,0,0,1.74,2.15,1.84,1.84,0,0,0,1.57-.83,2.46,2.46,0,0,1-2,2.19l0,.13h4.46l0-.12a2.45,2.45,0,0,1-2.08-2.2A1.84,1.84,0,0,0,20.41,50.19Z"/><path d="M20.41,69.88a2,2,0,0,0,1.74-2.15A4.82,4.82,0,0,0,20.92,65c-.84-1.08-2.25-3.21-2.25-3.21h0S17.25,63.94,16.41,65a4.82,4.82,0,0,0-1.23,2.71,2,2,0,0,0,1.74,2.15A1.84,1.84,0,0,0,18.5,69a2.46,2.46,0,0,1-2,2.19l0,.13h4.46l0-.12A2.45,2.45,0,0,1,18.84,69,1.84,1.84,0,0,0,20.41,69.88Z"/></svg>