<svg xmlns="http://www.w3.org/2000/svg" viewBox="0 0 64 94"><title>7Diamond</title><rect width="64" height="94" rx="4" ry="4" style="fill:#fffce7"/><polygon points="6.98 13.85 6.98 13.85 4.5 10.02 2.01 13.85 2.01 13.85 4.5 17.68 6.98 13.85" style="fill:#a12337"/><polygon points="57.23 80.11 57.23 80.11 59.71 83.94 62.2 80.11 62.2 80.11 59.71 76.28 57.23 80.11" style="fill:#a12337"/><polygon points="22.35 27.28 22.35 27.28 18.87 21.92 15.38 27.28 15.38 27.28 18.87 32.65 22.35 27.28" style="fill:#a12337"/><polygon points="35.38 34.08 35.38 34.08 31.89 28.71 28.41 34.08 28.41 34.08 31.89 39.45 35.38 34.08" style="fill:#a12337"/><polygon points="22.35 46.83 22.35 46.83 18.87 41.46 15.38 46.83 15.38 46.83 18.87 52.19 22.35 46.83" style="fill:#a12337"/><polygon points="22.35 66.37 22.35 66.37 18.87 61 15.38 66.37 15.38 66.37 18.87 71.74 22.35 66.37" style="fill:#a12337"/><polygon points="49.35 27.28 49.35 27.28 45.87 21.92 42.38 27.28 42.38 27.28 45.87 32.65 49.35 27.28" style="fill:#a12337"/><polygon points="49.35 46.83 49.35 46.83 45.87 41.46 42.38 46.83 42.38 46.83 45.87 52.19 49.35 46.83" style="fill:#a12337"/><polygon points="49.35 66.37 49.35 66.37 45.87 61 42.38 66.37 42.38 66.37 45.87 71.74 49.35 66.37" style="fill:#a12337"/><path d="M6.27,3.07c0,.07-.1.14-.12.2a7.35,7.35,0,0,0-.44.83A12.13,12.13,0,0,0,4.65,9.22H3.5a12.31,12.31,0,0,1,1-4.45c.1-.22.62-1.31.74-1.56H2.59V2.44H6.27Z" style="fill:#a12337"/><path d="M54.85,90.5H8A4.5,4.5,0,0,1,3.5,86V19.19h1V86A3.5,3.5,0,0,0,8,89.5H54.85Z"/><path d="M60.5,74.82h-1V8A3.5,3.5,0,0,0,56,4.5H9.15v-1H56A4.5,4.5,0,0,1,60.5,8Z"/><path d="M57.27,90.94c0-.07.1-.14.12-.2a7.49,7.49,0,0,0,.44-.83,12.13,12.13,0,0,0,1.06-5.12H60a12.28,12.28,0,0,1-1,4.45c-.1.22-.62,1.31-.74,1.56H61v.76H57.27Z" style="fill:#a12337"/></svg>