<svg xmlns="http://www.w3.org/2000/svg" viewBox="0 0 64 94"><title>7Heart</title><rect width="64" height="94" rx="4" ry="4" style="fill:#fffce7"/><path d="M7.34,12.08a1.63,1.63,0,0,0-1.43-1.77,1.49,1.49,0,0,0-1.43,1,1.49,1.49,0,0,0-1.43-1,1.63,1.63,0,0,0-1.43,1.77,4,4,0,0,0,1,2.23C3.31,15.2,4.48,17,4.48,17h0s1.17-1.76,1.85-2.64A4,4,0,0,0,7.34,12.08Z" style="fill:#a12337"/><path d="M6.27,3.07c0,.07-.1.14-.12.2a7.31,7.31,0,0,0-.44.83A12.13,12.13,0,0,0,4.65,9.22H3.5a12.31,12.31,0,0,1,1-4.45c.1-.22.62-1.31.74-1.56H2.59V2.44H6.27Z" style="fill:#a12337"/><path d="M54.85,90.5H8A4.5,4.5,0,0,1,3.5,86V19.19h1V86A3.5,3.5,0,0,0,8,89.5H54.85Z"/><path d="M60.5,74.82h-1V8A3.5,3.5,0,0,0,56,4.5H9.15v-1H56A4.5,4.5,0,0,1,60.5,8Z"/><path d="M62.19,81.94a1.63,1.63,0,0,1-1.43,1.77,1.49,1.49,0,0,1-1.43-1,1.49,1.49,0,0,1-1.43,1,1.63,1.63,0,0,1-1.43-1.77,4,4,0,0,1,1-2.23c.69-.89,1.85-2.64,1.85-2.64h0s1.17,1.76,1.85,2.64A4,4,0,0,1,62.19,81.94Z" style="fill:#a12337"/><path d="M57.27,90.94c0-.07.1-.14.12-.2a7.45,7.45,0,0,0,.44-.83,12.13,12.13,0,0,0,1.06-5.12H60a12.28,12.28,0,0,1-1,4.45c-.1.22-.62,1.31-.74,1.56H61v.76H57.27Z" style="fill:#a12337"/><path d="M36.47,32.18a2.44,2.44,0,0,0-2.15-2.65A2.23,2.23,0,0,0,32.17,31,2.23,2.23,0,0,0,30,29.53a2.44,2.44,0,0,0-2.15,2.65,6,6,0,0,0,1.52,3.35c1,1.33,2.78,4,2.78,4h0s1.75-2.64,2.78-4A6,6,0,0,0,36.47,32.18Z" style="fill:#a12337"/><path d="M23.2,25A2.44,2.44,0,0,0,21,22.35,2.23,2.23,0,0,0,18.9,23.8a2.23,2.23,0,0,0-2.15-1.45A2.44,2.44,0,0,0,14.61,25a6,6,0,0,0,1.52,3.35c1,1.33,2.78,4,2.78,4h0s1.75-2.64,2.78-4A6,6,0,0,0,23.2,25Z" style="fill:#a12337"/><path d="M23.2,44.67A2.44,2.44,0,0,0,21,42a2.23,2.23,0,0,0-2.15,1.45A2.23,2.23,0,0,0,16.76,42a2.44,2.44,0,0,0-2.15,2.65A6,6,0,0,0,16.12,48c1,1.33,2.78,4,2.78,4h0s1.75-2.64,2.78-4A6,6,0,0,0,23.2,44.67Z" style="fill:#a12337"/><path d="M23.2,64.34A2.44,2.44,0,0,0,21,61.68a2.23,2.23,0,0,0-2.15,1.45,2.23,2.23,0,0,0-2.15-1.45,2.44,2.44,0,0,0-2.15,2.65,6,6,0,0,0,1.52,3.35c1,1.33,2.78,4,2.78,4h0s1.75-2.64,2.78-4A6,6,0,0,0,23.2,64.34Z" style="fill:#a12337"/><path d="M49.39,25a2.44,2.44,0,0,0-2.15-2.65A2.23,2.23,0,0,0,45.1,23.8,2.23,2.23,0,0,0,43,22.35,2.44,2.44,0,0,0,40.8,25a6,6,0,0,0,1.52,3.35c1,1.33,2.78,4,2.78,4h0s1.75-2.64,2.78-4A6,6,0,0,0,49.39,25Z" style="fill:#a12337"/><path d="M49.39,44.67A2.44,2.44,0,0,0,47.24,42a2.23,2.23,0,0,0-2.15,1.45A2.23,2.23,0,0,0,43,42a2.44,2.44,0,0,0-2.15,2.65A6,6,0,0,0,42.32,48c1,1.33,2.78,4,2.78,4h0s1.75-2.64,2.78-4A6,6,0,0,0,49.39,44.67Z" style="fill:#a12337"/><path d="M49.39,64.34a2.44,2.44,0,0,0-2.15-2.65,2.23,2.23,0,0,0-2.15,1.45A2.23,2.23,0,0,0,43,61.68a2.44,2.44,0,0,0-2.15,2.65,6,6,0,0,0,1.52,3.35c1,1.33,2.78,4,2.78,4h0s1.75-2.64,2.78-4A6,6,0,0,0,49.39,64.34Z" style="fill:#a12337"/></svg>