<svg xmlns="http://www.w3.org/2000/svg" viewBox="0 0 64 94"><title>8Club</title><rect width="64" height="94" rx="4" ry="4" style="fill:#fffce7"/><path d="M5.57,5.57l-.23,0,.26.07c.71.25.71.87.71,1.51a3,3,0,0,1-.19,1.35c-.38.76-1.61.77-1.71.77a2.07,2.07,0,0,1-1.46-.48,1.51,1.51,0,0,1-.37-1.08c0-1.42,0-1.9,1-2.13C2.78,5.51,2.68,5.1,2.68,4c0-.47,0-1.64,1.79-1.64a2.06,2.06,0,0,1,1.48.48,1.57,1.57,0,0,1,.31,1.1C6.25,4.93,6.18,5.4,5.57,5.57Zm-1.13.5a1.08,1.08,0,0,0-.53.13c-.3.19-.3.45-.3,1.16s0,1.19.83,1.19.84-.56.84-1.23S5.28,6.07,4.44,6.07Zm0-3c-.76,0-.83.48-.83,1.1s0,1.12.84,1.12.74-.44.77-1.17C5.27,3.63,5.29,3,4.47,3Z"/><path d="M54.85,90.5H8A4.5,4.5,0,0,1,3.5,86V19.19h1V86A3.5,3.5,0,0,0,8,89.5H54.85Z"/><path d="M60.5,74.82h-1V8A3.5,3.5,0,0,0,56,4.5H9.16v-1H56A4.5,4.5,0,0,1,60.5,8Z"/><path d="M58,88.44l.23,0-.26-.07c-.71-.25-.71-.87-.71-1.51a3,3,0,0,1,.19-1.35c.38-.76,1.61-.77,1.71-.77a2.08,2.08,0,0,1,1.46.48A1.51,1.51,0,0,1,61,86.27c0,1.42,0,1.9-1,2.13.77.11.88.51.88,1.61,0,.47,0,1.64-1.79,1.64a2.06,2.06,0,0,1-1.48-.48,1.57,1.57,0,0,1-.31-1.1C57.29,89.09,57.37,88.62,58,88.44Zm1.13-.5a1.08,1.08,0,0,0,.53-.12c.3-.19.3-.45.3-1.16s0-1.19-.83-1.19-.84.56-.84,1.23S58.26,87.94,59.1,87.94Zm0,3c.76,0,.83-.48.83-1.1s0-1.12-.84-1.12-.74.44-.77,1.17C58.28,90.39,58.25,91,59.07,91Z"/><path d="M5.77,16.17a1.48,1.48,0,0,0,1.31-1.61,1.48,1.48,0,0,0-1.31-1.61,1.07,1.07,0,0,0-.26,0,1.85,1.85,0,0,0,.3-1A1.48,1.48,0,0,0,4.5,10.34,1.48,1.48,0,0,0,3.2,12a1.84,1.84,0,0,0,.32,1,1.07,1.07,0,0,0-.35-.06,1.48,1.48,0,0,0-1.31,1.61,1.48,1.48,0,0,0,1.31,1.61,1.33,1.33,0,0,0,1.19-1h0v0a2.09,2.09,0,0,1-1.68,2.17l0,.11H6.35v-.1a2.08,2.08,0,0,1-1.75-2.18v0h0A1.33,1.33,0,0,0,5.77,16.17Z"/><path d="M58.11,78a1.65,1.65,0,0,0,0,3.23,1.07,1.07,0,0,0,.26,0,1.85,1.85,0,0,0-.3,1,1.34,1.34,0,1,0,2.61,0,1.84,1.84,0,0,0-.32-1,1.07,1.07,0,0,0,.35.06,1.65,1.65,0,0,0,0-3.23,1.33,1.33,0,0,0-1.19,1h0v0a2.09,2.09,0,0,1,1.68-2.17l0-.11H57.53v.1a2.08,2.08,0,0,1,1.75,2.18v0h0A1.33,1.33,0,0,0,58.11,78Z"/><path d="M20.55,30.41a2,2,0,0,0,1.74-2.15,2,2,0,0,0-1.74-2.15,1.43,1.43,0,0,0-.34,0,2.47,2.47,0,0,0,.39-1.36,2,2,0,0,0-1.74-2.15,2,2,0,0,0-1.74,2.15,2.45,2.45,0,0,0,.42,1.4,1.43,1.43,0,0,0-.47-.08,2,2,0,0,0-1.74,2.15,2,2,0,0,0,1.74,2.15,1.77,1.77,0,0,0,1.59-1.28h0v0a2.78,2.78,0,0,1-2.23,2.89l0,.14h4.92l0-.13A2.78,2.78,0,0,1,19,29.18v0h0A1.77,1.77,0,0,0,20.55,30.41Z"/><path d="M20.55,50a2.2,2.2,0,0,0,0-4.3,1.43,1.43,0,0,0-.34,0,2.47,2.47,0,0,0,.39-1.36,2,2,0,0,0-1.74-2.15,2,2,0,0,0-1.74,2.15,2.45,2.45,0,0,0,.42,1.4,1.43,1.43,0,0,0-.47-.08,2.2,2.2,0,0,0,0,4.3,1.77,1.77,0,0,0,1.59-1.28h0v0a2.78,2.78,0,0,1-2.23,2.89l0,.14h4.92l0-.13A2.78,2.78,0,0,1,19,48.77v0h0A1.77,1.77,0,0,0,20.55,50Z"/><path d="M20.55,69.6a2.2,2.2,0,0,0,0-4.3,1.43,1.43,0,0,0-.34,0A2.47,2.47,0,0,0,20.6,64a2,2,0,0,0-1.74-2.15A2,2,0,0,0,17.12,64a2.45,2.45,0,0,0,.42,1.4,1.43,1.43,0,0,0-.47-.08,2.2,2.2,0,0,0,0,4.3,1.77,1.77,0,0,0,1.59-1.28h0v0a2.78,2.78,0,0,1-2.23,2.89l0,.14h4.92l0-.13A2.78,2.78,0,0,1,19,68.37v0h0A1.77,1.77,0,0,0,20.55,69.6Z"/><path d="M47.09,30.41a2,2,0,0,0,1.74-2.15,2,2,0,0,0-1.74-2.15,1.43,1.43,0,0,0-.34,0,2.47,2.47,0,0,0,.39-1.36,2,2,0,0,0-1.74-2.15,2,2,0,0,0-1.74,2.15,2.45,2.45,0,0,0,.42,1.4,1.43,1.43,0,0,0-.47-.08,2,2,0,0,0-1.74,2.15,2,2,0,0,0,1.74,2.15,1.77,1.77,0,0,0,1.59-1.28h0v0A2.78,2.78,0,0,1,43,32.07l0,.14h4.92l0-.13a2.78,2.78,0,0,1-2.34-2.9v0h0A1.77,1.77,0,0,0,47.09,30.41Z"/><path d="M33.75,37.32a2,2,0,0,0,1.74-2.15A2,2,0,0,0,33.75,33a1.43,1.43,0,0,0-.34,0,2.47,2.47,0,0,0,.39-1.36,2,2,0,0,0-1.74-2.15,2,2,0,0,0-1.74,2.15,2.45,2.45,0,0,0,.42,1.4,1.43,1.43,0,0,0-.47-.08,2,2,0,0,0-1.74,2.15,2,2,0,0,0,1.74,2.15A1.77,1.77,0,0,0,31.87,36h0v0A2.78,2.78,0,0,1,29.63,39l0,.14h4.92l0-.13a2.78,2.78,0,0,1-2.34-2.9v0h0A1.77,1.77,0,0,0,33.75,37.32Z"/><path d="M33.75,63.65a2.2,2.2,0,0,0,0-4.3,1.43,1.43,0,0,0-.34,0A2.47,2.47,0,0,0,33.8,58a2,2,0,0,0-1.74-2.15A2,2,0,0,0,30.32,58a2.45,2.45,0,0,0,.42,1.4,1.43,1.43,0,0,0-.47-.08,2.2,2.2,0,0,0,0,4.3,1.77,1.77,0,0,0,1.59-1.28h0v0a2.78,2.78,0,0,1-2.23,2.89l0,.14h4.92l0-.13a2.78,2.78,0,0,1-2.34-2.9v0h0A1.77,1.77,0,0,0,33.75,63.65Z"/><path d="M47.09,50a2.2,2.2,0,0,0,0-4.3,1.43,1.43,0,0,0-.34,0,2.47,2.47,0,0,0,.39-1.36,2,2,0,0,0-1.74-2.15,2,2,0,0,0-1.74,2.15,2.45,2.45,0,0,0,.42,1.4,1.43,1.43,0,0,0-.47-.08,2.2,2.2,0,0,0,0,4.3,1.77,1.77,0,0,0,1.59-1.28h0v0A2.78,2.78,0,0,1,43,51.67l0,.14h4.92l0-.13a2.78,2.78,0,0,1-2.34-2.9v0h0A1.77,1.77,0,0,0,47.09,50Z"/><path d="M47.09,69.6a2.2,2.2,0,0,0,0-4.3,1.43,1.43,0,0,0-.34,0A2.47,2.47,0,0,0,47.14,64a2,2,0,0,0-1.74-2.15A2,2,0,0,0,43.66,64a2.45,2.45,0,0,0,.42,1.4,1.43,1.43,0,0,0-.47-.08,2.2,2.2,0,0,0,0,4.3,1.77,1.77,0,0,0,1.59-1.28h0v0A2.78,2.78,0,0,1,43,71.26l0,.14h4.92l0-.13a2.78,2.78,0,0,1-2.34-2.9v0h0A1.77,1.77,0,0,0,47.09,69.6Z"/></svg>