<svg xmlns="http://www.w3.org/2000/svg" viewBox="0 0 64 94"><title>8Diamond</title><rect width="64" height="94" rx="4" ry="4" style="fill:#fffce7"/><polygon points="6.98 13.85 6.98 13.85 4.5 10.02 2.01 13.85 2.01 13.85 4.5 17.68 6.98 13.85" style="fill:#a12337"/><polygon points="57.23 80.11 57.23 80.11 59.71 83.94 62.2 80.11 62.2 80.11 59.71 76.28 57.23 80.11" style="fill:#a12337"/><polygon points="22.35 27.28 22.35 27.28 18.87 21.92 15.38 27.28 15.38 27.28 18.87 32.65 22.35 27.28" style="fill:#a12337"/><polygon points="35.38 34.08 35.38 34.08 31.89 28.71 28.41 34.08 28.41 34.08 31.89 39.45 35.38 34.08" style="fill:#a12337"/><polygon points="35.38 60.42 35.38 60.42 31.89 55.05 28.41 60.42 28.41 60.42 31.89 65.79 35.38 60.42" style="fill:#a12337"/><polygon points="22.35 46.83 22.35 46.83 18.87 41.46 15.38 46.83 15.38 46.83 18.87 52.19 22.35 46.83" style="fill:#a12337"/><polygon points="22.35 66.37 22.35 66.37 18.87 61 15.38 66.37 15.38 66.37 18.87 71.74 22.35 66.37" style="fill:#a12337"/><polygon points="49.35 27.28 49.35 27.28 45.87 21.92 42.38 27.28 42.38 27.28 45.87 32.65 49.35 27.28" style="fill:#a12337"/><polygon points="49.35 46.83 49.35 46.83 45.87 41.46 42.38 46.83 42.38 46.83 45.87 52.19 49.35 46.83" style="fill:#a12337"/><polygon points="49.35 66.37 49.35 66.37 45.87 61 42.38 66.37 42.38 66.37 45.87 71.74 49.35 66.37" style="fill:#a12337"/><path d="M5.57,5.57l-.23,0,.26.07c.71.25.71.87.71,1.51a3,3,0,0,1-.19,1.35c-.38.76-1.61.77-1.71.77a2.07,2.07,0,0,1-1.46-.48,1.51,1.51,0,0,1-.37-1.08c0-1.42,0-1.9,1-2.13C2.78,5.51,2.68,5.1,2.68,4c0-.47,0-1.64,1.79-1.64a2.06,2.06,0,0,1,1.48.48,1.57,1.57,0,0,1,.31,1.1C6.25,4.93,6.18,5.4,5.57,5.57Zm-1.13.5a1.08,1.08,0,0,0-.53.13c-.3.19-.3.45-.3,1.16s0,1.19.83,1.19.84-.56.84-1.23S5.28,6.07,4.44,6.07Zm0-3c-.76,0-.83.48-.83,1.1s0,1.12.84,1.12.74-.44.77-1.17C5.27,3.63,5.29,3,4.47,3Z" style="fill:#a12337"/><path d="M54.85,90.5H8A4.5,4.5,0,0,1,3.5,86V19.19h1V86A3.5,3.5,0,0,0,8,89.5H54.85Z"/><path d="M60.5,74.82h-1V8A3.5,3.5,0,0,0,56,4.5H9.16v-1H56A4.5,4.5,0,0,1,60.5,8Z"/><path d="M58,88.44l.23,0-.26-.07c-.71-.25-.71-.87-.71-1.51a3,3,0,0,1,.19-1.35c.38-.76,1.61-.77,1.71-.77a2.08,2.08,0,0,1,1.46.48A1.52,1.52,0,0,1,61,86.27c0,1.42,0,1.9-1,2.13.77.11.88.51.88,1.61,0,.47,0,1.64-1.79,1.64a2.06,2.06,0,0,1-1.48-.48,1.57,1.57,0,0,1-.31-1.1C57.29,89.09,57.37,88.62,58,88.44Zm1.13-.5a1.08,1.08,0,0,0,.53-.12c.3-.19.3-.45.3-1.16s0-1.19-.83-1.19-.84.56-.84,1.23S58.26,87.94,59.1,87.94Zm0,3c.76,0,.83-.48.83-1.1s0-1.12-.84-1.12-.74.44-.77,1.17C58.28,90.39,58.25,91,59.07,91Z" style="fill:#a12337"/></svg>