<svg xmlns="http://www.w3.org/2000/svg" viewBox="0 0 64 94"><title>8Heart</title><rect width="64" height="94" rx="4" ry="4" style="fill:#fffce7"/><path d="M7.35,12.08a1.63,1.63,0,0,0-1.43-1.77,1.49,1.49,0,0,0-1.43,1,1.49,1.49,0,0,0-1.43-1,1.63,1.63,0,0,0-1.43,1.77,4,4,0,0,0,1,2.23C3.32,15.2,4.48,17,4.48,17h0s1.17-1.76,1.85-2.64A4,4,0,0,0,7.35,12.08Z" style="fill:#a12337"/><path d="M5.57,5.57l-.23,0,.26.07c.71.25.71.87.71,1.51a3,3,0,0,1-.19,1.35c-.38.76-1.61.77-1.71.77a2.07,2.07,0,0,1-1.46-.48,1.51,1.51,0,0,1-.37-1.08c0-1.42,0-1.9,1-2.13C2.78,5.51,2.68,5.1,2.68,4c0-.47,0-1.64,1.79-1.64a2.06,2.06,0,0,1,1.48.48,1.57,1.57,0,0,1,.31,1.1C6.25,4.93,6.18,5.4,5.57,5.57Zm-1.13.5a1.08,1.08,0,0,0-.53.12c-.3.19-.3.45-.3,1.16s0,1.19.83,1.19.84-.56.84-1.23S5.28,6.07,4.44,6.07Zm0-3c-.76,0-.83.48-.83,1.1s0,1.12.84,1.12.74-.44.77-1.17C5.27,3.63,5.29,3,4.47,3Z" style="fill:#a12337"/><path d="M54.85,90.5H8A4.5,4.5,0,0,1,3.5,86V19.19h1V86A3.5,3.5,0,0,0,8,89.5H54.85Z"/><path d="M60.5,74.82h-1V8A3.5,3.5,0,0,0,56,4.5H9.16v-1H56A4.5,4.5,0,0,1,60.5,8Z"/><path d="M62.19,81.94a1.63,1.63,0,0,1-1.43,1.77,1.49,1.49,0,0,1-1.43-1,1.49,1.49,0,0,1-1.43,1,1.63,1.63,0,0,1-1.43-1.77,4,4,0,0,1,1-2.23c.69-.89,1.85-2.64,1.85-2.64h0s1.17,1.76,1.85,2.64A4,4,0,0,1,62.19,81.94Z" style="fill:#a12337"/><path d="M58,88.44l.23,0-.26-.07c-.71-.25-.71-.87-.71-1.51a3,3,0,0,1,.19-1.35c.38-.76,1.61-.77,1.71-.77a2.08,2.08,0,0,1,1.46.48A1.52,1.52,0,0,1,61,86.27c0,1.42,0,1.9-1,2.13.77.11.88.51.88,1.61,0,.47,0,1.64-1.79,1.64a2.06,2.06,0,0,1-1.48-.48,1.57,1.57,0,0,1-.31-1.1C57.29,89.09,57.37,88.62,58,88.44Zm1.13-.5a1.08,1.08,0,0,0,.53-.12c.3-.19.3-.45.3-1.16s0-1.19-.83-1.19-.84.56-.84,1.23S58.26,87.94,59.1,87.94Zm0,3c.76,0,.83-.48.83-1.1s0-1.12-.84-1.12-.74.44-.77,1.17C58.28,90.39,58.25,91,59.07,91Z" style="fill:#a12337"/><path d="M36.47,32.18a2.44,2.44,0,0,0-2.15-2.65A2.23,2.23,0,0,0,32.17,31,2.23,2.23,0,0,0,30,29.53a2.44,2.44,0,0,0-2.15,2.65,6,6,0,0,0,1.52,3.35c1,1.33,2.78,4,2.78,4h0s1.75-2.64,2.78-4A6,6,0,0,0,36.47,32.18Z" style="fill:#a12337"/><path d="M36.47,58.56a2.44,2.44,0,0,0-2.15-2.65,2.23,2.23,0,0,0-2.15,1.45A2.23,2.23,0,0,0,30,55.91a2.44,2.44,0,0,0-2.15,2.65,6,6,0,0,0,1.52,3.35c1,1.33,2.78,4,2.78,4h0s1.75-2.64,2.78-4A6,6,0,0,0,36.47,58.56Z" style="fill:#a12337"/><path d="M23.2,25A2.44,2.44,0,0,0,21,22.35,2.23,2.23,0,0,0,18.9,23.8a2.23,2.23,0,0,0-2.15-1.45A2.44,2.44,0,0,0,14.61,25a6,6,0,0,0,1.52,3.35c1,1.33,2.78,4,2.78,4h0s1.75-2.64,2.78-4A6,6,0,0,0,23.2,25Z" style="fill:#a12337"/><path d="M23.2,44.67A2.44,2.44,0,0,0,21,42a2.23,2.23,0,0,0-2.15,1.45A2.23,2.23,0,0,0,16.76,42a2.44,2.44,0,0,0-2.15,2.65A6,6,0,0,0,16.12,48c1,1.33,2.78,4,2.78,4h0s1.75-2.64,2.78-4A6,6,0,0,0,23.2,44.67Z" style="fill:#a12337"/><path d="M23.2,64.34A2.44,2.44,0,0,0,21,61.68a2.23,2.23,0,0,0-2.15,1.45,2.23,2.23,0,0,0-2.15-1.45,2.44,2.44,0,0,0-2.15,2.65,6,6,0,0,0,1.52,3.35c1,1.33,2.78,4,2.78,4h0s1.75-2.64,2.78-4A6,6,0,0,0,23.2,64.34Z" style="fill:#a12337"/><path d="M49.39,25a2.44,2.44,0,0,0-2.15-2.65A2.23,2.23,0,0,0,45.1,23.8,2.23,2.23,0,0,0,43,22.35,2.44,2.44,0,0,0,40.8,25a6,6,0,0,0,1.52,3.35c1,1.33,2.78,4,2.78,4h0s1.75-2.64,2.78-4A6,6,0,0,0,49.39,25Z" style="fill:#a12337"/><path d="M49.39,44.67A2.44,2.44,0,0,0,47.24,42a2.23,2.23,0,0,0-2.15,1.45A2.23,2.23,0,0,0,43,42a2.44,2.44,0,0,0-2.15,2.65A6,6,0,0,0,42.32,48c1,1.33,2.78,4,2.78,4h0s1.75-2.64,2.78-4A6,6,0,0,0,49.39,44.67Z" style="fill:#a12337"/><path d="M49.39,64.34a2.44,2.44,0,0,0-2.15-2.65,2.23,2.23,0,0,0-2.15,1.45A2.23,2.23,0,0,0,43,61.68a2.44,2.44,0,0,0-2.15,2.65,6,6,0,0,0,1.52,3.35c1,1.33,2.78,4,2.78,4h0s1.75-2.64,2.78-4A6,6,0,0,0,49.39,64.34Z" style="fill:#a12337"/></svg>