<svg xmlns="http://www.w3.org/2000/svg" viewBox="0 0 64 94"><title>9Diamond</title><rect width="64" height="94" rx="4" ry="4" style="fill:#fffce7"/><polygon points="6.98 13.85 6.98 13.85 4.5 10.02 2.01 13.85 2.01 13.85 4.5 17.68 6.98 13.85" style="fill:#a12337"/><polygon points="57.23 80.11 57.23 80.11 59.71 83.94 62.2 80.11 62.2 80.11 59.71 76.28 57.23 80.11" style="fill:#a12337"/><polygon points="48.69 27.28 48.69 27.28 45.21 21.92 41.72 27.28 41.72 27.28 45.21 32.65 48.69 27.28" style="fill:#a12337"/><polygon points="48.69 40.31 48.69 40.31 45.21 34.95 41.72 40.31 41.72 40.31 45.21 45.68 48.69 40.31" style="fill:#a12337"/><polygon points="48.69 53.34 48.69 53.34 45.21 47.97 41.72 53.34 41.72 53.34 45.21 58.71 48.69 53.34" style="fill:#a12337"/><polygon points="48.69 66.23 48.69 66.23 45.21 60.86 41.72 66.23 41.72 66.23 45.21 71.59 48.69 66.23" style="fill:#a12337"/><polygon points="48.69 66.37 48.69 66.37 45.21 61 41.72 66.37 41.72 66.37 45.21 71.74 48.69 66.37" style="fill:#a12337"/><polygon points="22.35 27.28 22.35 27.28 18.87 21.92 15.38 27.28 15.38 27.28 18.87 32.65 22.35 27.28" style="fill:#a12337"/><polygon points="35.38 34.08 35.38 34.08 31.89 28.71 28.41 34.08 28.41 34.08 31.89 39.45 35.38 34.08" style="fill:#a12337"/><polygon points="22.35 40.31 22.35 40.31 18.87 34.95 15.38 40.31 15.38 40.31 18.87 45.68 22.35 40.31" style="fill:#a12337"/><polygon points="22.35 53.34 22.35 53.34 18.87 47.97 15.38 53.34 15.38 53.34 18.87 58.71 22.35 53.34" style="fill:#a12337"/><polygon points="22.35 66.37 22.35 66.37 18.87 61 15.38 66.37 15.38 66.37 18.87 71.74 22.35 66.37" style="fill:#a12337"/><path d="M3.61,7.44a3.06,3.06,0,0,0,0,.52c0,.16,0,.61.79.61s.8-.47.83-1.16c0-.15,0-.92,0-1.09A1.76,1.76,0,0,1,4,6.72,1.34,1.34,0,0,1,2.56,5.16a9.22,9.22,0,0,1,.11-1.83c.19-.75,1-1,1.74-1a2.58,2.58,0,0,1,.95.14,1.37,1.37,0,0,1,.85,1,12.6,12.6,0,0,1,0,1.86c0,.43,0,2.34,0,2.64C6.07,9.18,5,9.31,4.39,9.31c-.84,0-1.55-.33-1.7-.92a3.29,3.29,0,0,1,0-1ZM5.23,3.73a.73.73,0,0,0-.79-.63.77.77,0,0,0-.84.64c0,.16,0,.85,0,1.12v.5c0,.38.33.63.85.63s.82-.26.82-.74V4.58S5.24,3.81,5.23,3.73Z" style="fill:#a12337"/><path d="M54.85,90.5H8A4.5,4.5,0,0,1,3.5,86V19.19h1V86A3.5,3.5,0,0,0,8,89.5H54.85Z"/><path d="M60.5,74.82h-1V8A3.5,3.5,0,0,0,56,4.5H9.16v-1H56A4.5,4.5,0,0,1,60.5,8Z"/><path d="M60.2,86.58a3.07,3.07,0,0,0,0-.52c0-.16,0-.6-.79-.6s-.8.47-.83,1.16c0,.15,0,.92,0,1.09a1.76,1.76,0,0,1,1.22-.42,1.34,1.34,0,0,1,1.45,1.56,9.3,9.3,0,0,1-.11,1.83c-.19.75-1,1-1.74,1a2.59,2.59,0,0,1-.95-.14,1.37,1.37,0,0,1-.85-1,12.94,12.94,0,0,1,0-1.86c0-.43,0-2.34,0-2.64.13-1.18,1.22-1.31,1.81-1.31.84,0,1.55.33,1.7.92a3.37,3.37,0,0,1,0,1Zm-1.62,3.7a.73.73,0,0,0,.79.63.77.77,0,0,0,.84-.64c0-.16,0-.86,0-1.12v-.5c0-.38-.33-.63-.85-.63s-.81.26-.81.74v.67S58.57,90.21,58.58,90.29Z" style="fill:#a12337"/></svg>