<svg xmlns="http://www.w3.org/2000/svg" viewBox="0 0 64 94"><title>9Heart</title><rect width="64" height="94" rx="4" ry="4" style="fill:#fffce7"/><path d="M7.35,12.08a1.63,1.63,0,0,0-1.43-1.77,1.49,1.49,0,0,0-1.43,1,1.49,1.49,0,0,0-1.43-1,1.63,1.63,0,0,0-1.43,1.77,4,4,0,0,0,1,2.23C3.32,15.2,4.48,17,4.48,17h0s1.17-1.76,1.85-2.64A4,4,0,0,0,7.35,12.08Z" style="fill:#a12337"/><path d="M3.61,7.44a3.07,3.07,0,0,0,0,.52c0,.16,0,.6.79.6s.8-.47.83-1.16c0-.15,0-.92,0-1.09A1.76,1.76,0,0,1,4,6.73,1.34,1.34,0,0,1,2.56,5.16a9.22,9.22,0,0,1,.11-1.83c.19-.75,1-1,1.74-1a2.58,2.58,0,0,1,.95.14,1.36,1.36,0,0,1,.85,1,12.6,12.6,0,0,1,0,1.86c0,.43,0,2.34,0,2.64C6.07,9.18,5,9.31,4.39,9.31c-.84,0-1.55-.33-1.7-.92a3.29,3.29,0,0,1,0-1Zm1.62-3.7a.73.73,0,0,0-.79-.63.77.77,0,0,0-.84.64c0,.16,0,.85,0,1.12v.5c0,.38.33.63.85.63s.82-.26.82-.74V4.58S5.24,3.81,5.23,3.73Z" style="fill:#a12337"/><path d="M54.85,90.5H8A4.5,4.5,0,0,1,3.5,86V19.19h1V86A3.5,3.5,0,0,0,8,89.5H54.85Z"/><path d="M60.5,74.82h-1V8A3.5,3.5,0,0,0,56,4.5H9.16v-1H56A4.5,4.5,0,0,1,60.5,8Z"/><path d="M62.19,81.94a1.63,1.63,0,0,1-1.43,1.77,1.49,1.49,0,0,1-1.43-1,1.49,1.49,0,0,1-1.43,1,1.63,1.63,0,0,1-1.43-1.77,4,4,0,0,1,1-2.23c.69-.89,1.85-2.64,1.85-2.64h0s1.17,1.76,1.85,2.64A4,4,0,0,1,62.19,81.94Z" style="fill:#a12337"/><path d="M60.2,86.58a3.07,3.07,0,0,0,0-.52c0-.16,0-.6-.79-.6s-.8.47-.83,1.16c0,.15,0,.92,0,1.09a1.76,1.76,0,0,1,1.22-.42,1.34,1.34,0,0,1,1.45,1.56,9.3,9.3,0,0,1-.11,1.83c-.19.75-1,1-1.74,1a2.59,2.59,0,0,1-.95-.14,1.37,1.37,0,0,1-.85-1,12.94,12.94,0,0,1,0-1.86c0-.43,0-2.34,0-2.64.13-1.18,1.22-1.31,1.81-1.31.84,0,1.55.33,1.7.92a3.36,3.36,0,0,1,0,1Zm-1.62,3.7a.73.73,0,0,0,.79.63.77.77,0,0,0,.84-.64c0-.16,0-.85,0-1.12v-.5c0-.38-.33-.63-.85-.63s-.81.26-.81.74v.67S58.57,90.21,58.58,90.29Z" style="fill:#a12337"/><path d="M23.2,25A2.44,2.44,0,0,0,21,22.35,2.23,2.23,0,0,0,18.9,23.8a2.23,2.23,0,0,0-2.15-1.45A2.44,2.44,0,0,0,14.61,25a6,6,0,0,0,1.52,3.35c1,1.33,2.78,4,2.78,4h0s1.75-2.64,2.78-4A6,6,0,0,0,23.2,25Z" style="fill:#a12337"/><path d="M23.2,38.11A2.44,2.44,0,0,0,21,35.46a2.23,2.23,0,0,0-2.15,1.45,2.23,2.23,0,0,0-2.15-1.45,2.44,2.44,0,0,0-2.15,2.65,6,6,0,0,0,1.52,3.35c1,1.33,2.78,4,2.78,4h0s1.75-2.64,2.78-4A6,6,0,0,0,23.2,38.11Z" style="fill:#a12337"/><path d="M36.19,44.67A2.44,2.44,0,0,0,34,42a2.23,2.23,0,0,0-2.15,1.45A2.23,2.23,0,0,0,29.75,42a2.44,2.44,0,0,0-2.15,2.65A6,6,0,0,0,29.12,48c1,1.33,2.78,4,2.78,4h0s1.75-2.64,2.78-4A6,6,0,0,0,36.19,44.67Z" style="fill:#a12337"/><path d="M23.2,51.23A2.44,2.44,0,0,0,21,48.57,2.23,2.23,0,0,0,18.9,50a2.23,2.23,0,0,0-2.15-1.45,2.44,2.44,0,0,0-2.15,2.65,6,6,0,0,0,1.52,3.35c1,1.33,2.78,4,2.78,4h0s1.75-2.64,2.78-4A6,6,0,0,0,23.2,51.23Z" style="fill:#a12337"/><path d="M23.2,64.34A2.44,2.44,0,0,0,21,61.68a2.23,2.23,0,0,0-2.15,1.45,2.23,2.23,0,0,0-2.15-1.45,2.44,2.44,0,0,0-2.15,2.65,6,6,0,0,0,1.52,3.35c1,1.33,2.78,4,2.78,4h0s1.75-2.64,2.78-4A6,6,0,0,0,23.2,64.34Z" style="fill:#a12337"/><path d="M49.39,25a2.44,2.44,0,0,0-2.15-2.65A2.23,2.23,0,0,0,45.1,23.8,2.23,2.23,0,0,0,43,22.35,2.44,2.44,0,0,0,40.8,25a6,6,0,0,0,1.52,3.35c1,1.33,2.78,4,2.78,4h0s1.75-2.64,2.78-4A6,6,0,0,0,49.39,25Z" style="fill:#a12337"/><path d="M49.39,38.11a2.44,2.44,0,0,0-2.15-2.65,2.23,2.23,0,0,0-2.15,1.45A2.23,2.23,0,0,0,43,35.46a2.44,2.44,0,0,0-2.15,2.65,6,6,0,0,0,1.52,3.35c1,1.33,2.78,4,2.78,4h0s1.75-2.64,2.78-4A6,6,0,0,0,49.39,38.11Z" style="fill:#a12337"/><path d="M49.39,51.23a2.44,2.44,0,0,0-2.15-2.65A2.23,2.23,0,0,0,45.1,50,2.23,2.23,0,0,0,43,48.57a2.44,2.44,0,0,0-2.15,2.65,6,6,0,0,0,1.52,3.35c1,1.33,2.78,4,2.78,4h0s1.75-2.64,2.78-4A6,6,0,0,0,49.39,51.23Z" style="fill:#a12337"/><path d="M49.39,64.34a2.44,2.44,0,0,0-2.15-2.65,2.23,2.23,0,0,0-2.15,1.45A2.23,2.23,0,0,0,43,61.68a2.44,2.44,0,0,0-2.15,2.65,6,6,0,0,0,1.52,3.35c1,1.33,2.78,4,2.78,4h0s1.75-2.64,2.78-4A6,6,0,0,0,49.39,64.34Z" style="fill:#a12337"/></svg>