<svg xmlns="http://www.w3.org/2000/svg" viewBox="0 0 64 94"><title>9Spade</title><rect width="64" height="94" rx="4" ry="4" style="fill:#fffce7"/><path d="M5.78,16.15a1.49,1.49,0,0,0,1.31-1.61,3.62,3.62,0,0,0-.92-2c-.63-.81-1.69-2.41-1.69-2.41h0s-1.06,1.6-1.69,2.41a3.62,3.62,0,0,0-.92,2,1.49,1.49,0,0,0,1.31,1.61,1.38,1.38,0,0,0,1.18-.62,1.85,1.85,0,0,1-1.5,1.65l0,.1H6.18v-.09A1.84,1.84,0,0,1,4.6,15.53,1.38,1.38,0,0,0,5.78,16.15Z"/><path d="M60.59,77.82a1.49,1.49,0,0,1,1.31,1.61,3.62,3.62,0,0,1-.92,2c-.63.81-1.69,2.41-1.69,2.41h0s-1.06-1.6-1.69-2.41a3.62,3.62,0,0,1-.92-2A1.49,1.49,0,0,1,58,77.82a1.38,1.38,0,0,1,1.18.62,1.85,1.85,0,0,0-1.5-1.65l0-.1H61v.09a1.84,1.84,0,0,0-1.57,1.65A1.38,1.38,0,0,1,60.59,77.82Z"/><path d="M3.61,7.44a3.07,3.07,0,0,0,0,.52c0,.16,0,.6.79.6s.8-.47.83-1.16c0-.15,0-.92,0-1.09A1.76,1.76,0,0,1,4,6.72,1.34,1.34,0,0,1,2.56,5.16a9.22,9.22,0,0,1,.11-1.83c.19-.75,1-1,1.74-1a2.58,2.58,0,0,1,.95.14,1.36,1.36,0,0,1,.85,1,12.6,12.6,0,0,1,0,1.86c0,.43,0,2.34,0,2.64C6.07,9.18,5,9.31,4.39,9.31c-.84,0-1.55-.33-1.7-.92a3.29,3.29,0,0,1,0-1Zm1.62-3.7a.73.73,0,0,0-.79-.63.77.77,0,0,0-.84.64c0,.16,0,.85,0,1.12v.5c0,.38.33.63.85.63s.82-.26.82-.74V4.58S5.24,3.81,5.23,3.73Z"/><path d="M54.85,90.5H8A4.5,4.5,0,0,1,3.5,86V19.19h1V86A3.5,3.5,0,0,0,8,89.5H54.85Z"/><path d="M60.5,74.82h-1V8A3.5,3.5,0,0,0,56,4.5H9.16v-1H56A4.5,4.5,0,0,1,60.5,8Z"/><path d="M60.2,86.58a3.07,3.07,0,0,0,0-.52c0-.16,0-.6-.79-.6s-.8.47-.83,1.16c0,.15,0,.92,0,1.09a1.76,1.76,0,0,1,1.22-.42,1.34,1.34,0,0,1,1.45,1.56,9.3,9.3,0,0,1-.11,1.83c-.19.75-1,1-1.74,1a2.59,2.59,0,0,1-.95-.14,1.37,1.37,0,0,1-.85-1,12.94,12.94,0,0,1,0-1.86c0-.43,0-2.34,0-2.64.13-1.18,1.22-1.31,1.81-1.31.84,0,1.55.33,1.7.92a3.37,3.37,0,0,1,0,1Zm-1.62,3.7a.73.73,0,0,0,.79.63.77.77,0,0,0,.84-.64c0-.16,0-.86,0-1.12v-.5c0-.38-.33-.63-.85-.63s-.81.26-.81.74v.67S58.57,90.21,58.58,90.29Z"/><path d="M46.9,30.5a2,2,0,0,0,1.74-2.15,4.82,4.82,0,0,0-1.23-2.71c-.84-1.08-2.25-3.21-2.25-3.21h0s-1.41,2.13-2.25,3.21a4.82,4.82,0,0,0-1.23,2.71,2,2,0,0,0,1.74,2.15A1.84,1.84,0,0,0,45,29.67a2.46,2.46,0,0,1-2,2.19L43,32h4.46l0-.12a2.45,2.45,0,0,1-2.08-2.2A1.84,1.84,0,0,0,46.9,30.5Z"/><path d="M46.9,43.63a2,2,0,0,0,1.74-2.15,4.82,4.82,0,0,0-1.23-2.71c-.84-1.08-2.25-3.21-2.25-3.21h0s-1.41,2.13-2.25,3.21a4.82,4.82,0,0,0-1.23,2.71,2,2,0,0,0,1.74,2.15A1.84,1.84,0,0,0,45,42.8,2.46,2.46,0,0,1,43,45l0,.13h4.46l0-.12a2.45,2.45,0,0,1-2.08-2.2A1.84,1.84,0,0,0,46.9,43.63Z"/><path d="M46.9,56.75a2,2,0,0,0,1.74-2.15,4.82,4.82,0,0,0-1.23-2.71c-.84-1.08-2.25-3.21-2.25-3.21h0s-1.41,2.13-2.25,3.21a4.82,4.82,0,0,0-1.23,2.71,2,2,0,0,0,1.74,2.15A1.84,1.84,0,0,0,45,55.92a2.46,2.46,0,0,1-2,2.19l0,.13h4.46l0-.12a2.45,2.45,0,0,1-2.08-2.2A1.84,1.84,0,0,0,46.9,56.75Z"/><path d="M46.9,69.88a2,2,0,0,0,1.74-2.15A4.82,4.82,0,0,0,47.42,65c-.84-1.08-2.25-3.21-2.25-3.21h0S43.75,63.94,42.91,65a4.82,4.82,0,0,0-1.23,2.71,2,2,0,0,0,1.74,2.15A1.84,1.84,0,0,0,45,69a2.46,2.46,0,0,1-2,2.19l0,.13h4.46l0-.12A2.45,2.45,0,0,1,45.33,69,1.84,1.84,0,0,0,46.9,69.88Z"/><path d="M20.39,30.5a2,2,0,0,0,1.74-2.15,4.82,4.82,0,0,0-1.23-2.71c-.84-1.08-2.25-3.21-2.25-3.21h0s-1.41,2.13-2.25,3.21a4.82,4.82,0,0,0-1.23,2.71,2,2,0,0,0,1.74,2.15,1.84,1.84,0,0,0,1.57-.83,2.46,2.46,0,0,1-2,2.19l0,.13h4.46l0-.12a2.45,2.45,0,0,1-2.08-2.2A1.84,1.84,0,0,0,20.39,30.5Z"/><path d="M20.39,43.63a2,2,0,0,0,1.74-2.15,4.82,4.82,0,0,0-1.23-2.71c-.84-1.08-2.25-3.21-2.25-3.21h0s-1.41,2.13-2.25,3.21a4.82,4.82,0,0,0-1.23,2.71,2,2,0,0,0,1.74,2.15,1.84,1.84,0,0,0,1.57-.83,2.46,2.46,0,0,1-2,2.19l0,.13h4.46l0-.12a2.45,2.45,0,0,1-2.08-2.2A1.84,1.84,0,0,0,20.39,43.63Z"/><path d="M33.51,37.53a2,2,0,0,0,1.74-2.15A4.82,4.82,0,0,0,34,32.67c-.84-1.08-2.25-3.21-2.25-3.21h0s-1.41,2.13-2.25,3.21a4.82,4.82,0,0,0-1.23,2.71A2,2,0,0,0,30,37.53a1.84,1.84,0,0,0,1.57-.83,2.46,2.46,0,0,1-2,2.19l0,.13H34l0-.12a2.45,2.45,0,0,1-2.08-2.2A1.84,1.84,0,0,0,33.51,37.53Z"/><path d="M20.39,56.75a2,2,0,0,0,1.74-2.15,4.82,4.82,0,0,0-1.23-2.71c-.84-1.08-2.25-3.21-2.25-3.21h0s-1.41,2.13-2.25,3.21a4.82,4.82,0,0,0-1.23,2.71,2,2,0,0,0,1.74,2.15,1.84,1.84,0,0,0,1.57-.83,2.46,2.46,0,0,1-2,2.19l0,.13h4.46l0-.12a2.45,2.45,0,0,1-2.08-2.2A1.84,1.84,0,0,0,20.39,56.75Z"/><path d="M20.39,69.88a2,2,0,0,0,1.74-2.15A4.82,4.82,0,0,0,20.9,65c-.84-1.08-2.25-3.21-2.25-3.21h0S17.23,63.94,16.4,65a4.82,4.82,0,0,0-1.23,2.71,2,2,0,0,0,1.74,2.15A1.84,1.84,0,0,0,18.48,69a2.46,2.46,0,0,1-2,2.19l0,.13h4.46l0-.12A2.45,2.45,0,0,1,18.82,69,1.84,1.84,0,0,0,20.39,69.88Z"/></svg>