<svg xmlns="http://www.w3.org/2000/svg" viewBox="0 0 64 94"><title>aceClub</title><rect width="64" height="94" rx="4" ry="4" style="fill:#fffce7"/><path d="M5.77,16.17a1.48,1.48,0,0,0,1.31-1.61,1.48,1.48,0,0,0-1.31-1.61,1.07,1.07,0,0,0-.26,0,1.85,1.85,0,0,0,.3-1A1.48,1.48,0,0,0,4.5,10.34,1.48,1.48,0,0,0,3.2,12a1.84,1.84,0,0,0,.32,1,1.07,1.07,0,0,0-.35-.06,1.48,1.48,0,0,0-1.31,1.61,1.48,1.48,0,0,0,1.31,1.61,1.33,1.33,0,0,0,1.19-1h0v0a2.09,2.09,0,0,1-1.68,2.17l0,.11H6.35v-.1a2.08,2.08,0,0,1-1.75-2.18v0h0A1.33,1.33,0,0,0,5.77,16.17Z"/><path d="M6.82,9.22H5.71l-.3-1.31h-2L3.16,9.22H2.07L3.89,2.44H4.95Zm-1.58-2L4.41,3.7,3.63,7.19Z"/><path d="M59.75,91.54H58.7l-1.82-6.78H58l.29,1.31h2l.3-1.31h1.1Zm-1.32-4.74.78,3.48L60,86.79Z"/><path d="M54.85,90.5H8A4.5,4.5,0,0,1,3.5,86V19.19h1V86A3.5,3.5,0,0,0,8,89.5H54.85Z"/><path d="M60.5,74.82h-1V8A3.5,3.5,0,0,0,56,4.5H9.15v-1H56A4.5,4.5,0,0,1,60.5,8Z"/><path d="M58.11,78a1.65,1.65,0,0,0,0,3.23,1.07,1.07,0,0,0,.26,0,1.85,1.85,0,0,0-.3,1,1.34,1.34,0,1,0,2.61,0,1.84,1.84,0,0,0-.32-1,1.07,1.07,0,0,0,.35.06,1.65,1.65,0,0,0,0-3.23,1.33,1.33,0,0,0-1.19,1h0v0a2.09,2.09,0,0,1,1.68-2.17l0-.11H57.53v.1a2.08,2.08,0,0,1,1.75,2.18v0h0A1.33,1.33,0,0,0,58.11,78Z"/><path d="M41.39,63.12c5.19,0,9.41-5.2,9.41-11.61S46.58,39.9,41.39,39.9a7.71,7.71,0,0,0-1.84.22,13.32,13.32,0,0,0,2.13-7.35c0-6.41-4.21-11.61-9.41-11.61s-9.41,5.2-9.41,11.61a13.25,13.25,0,0,0,2.27,7.56,7.73,7.73,0,0,0-2.52-.43c-5.19,0-9.41,5.2-9.41,11.61s4.21,11.61,9.41,11.61c3.83,0,7.12-2.84,8.58-6.9l0,.06,0,.18c0,8.44-5.44,14.66-12.07,15.63l-.13.76H45.55l-.1-.7c-6.85-.71-12.62-7.05-12.62-15.69l0-.18v0C34.27,60.29,37.56,63.12,41.39,63.12Z"/></svg>