<svg xmlns="http://www.w3.org/2000/svg" viewBox="0 0 64 94"><title>aceDiamond</title><rect width="64" height="94" rx="4" ry="4" style="fill:#fffce7"/><polygon points="48.58 47 48.58 47 32 21.48 15.42 47 15.42 47 32 72.52 48.58 47" style="fill:#a12337"/><polygon points="6.98 13.85 6.98 13.85 4.5 10.02 2.01 13.85 2.01 13.85 4.5 17.68 6.98 13.85" style="fill:#a12337"/><path d="M6.82,9.22H5.71l-.3-1.31h-2L3.16,9.22H2.07L3.89,2.44H4.95Zm-1.58-2L4.41,3.7,3.63,7.19Z" style="fill:#a12337"/><polygon points="57.23 80.11 57.23 80.11 59.71 83.94 62.2 80.11 62.2 80.11 59.71 76.28 57.23 80.11" style="fill:#a12337"/><path d="M57.18,84.88h1.1l.3,1.3h2l.29-1.3h1.09l-1.82,6.78H59.06Zm1.58,2,.83,3.48.78-3.48Z" style="fill:#a12337"/><path d="M54.85,90.5H8A4.5,4.5,0,0,1,3.5,86V19.19h1V86A3.5,3.5,0,0,0,8,89.5H54.85Z"/><path d="M60.5,74.82h-1V8A3.5,3.5,0,0,0,56,4.5H9.15v-1H56A4.5,4.5,0,0,1,60.5,8Z"/></svg>