<svg xmlns="http://www.w3.org/2000/svg" viewBox="0 0 64 94"><title>aceHeart</title><rect width="64" height="94" rx="4" ry="4" style="fill:#fffce7"/><path d="M51.1,36.65c0-6.51-4.28-11.8-9.55-11.8A9.93,9.93,0,0,0,32,31.29a9.93,9.93,0,0,0-9.54-6.44c-5.28,0-9.55,5.28-9.55,11.8,0,4.7,2.85,9.9,6.73,14.89C24.23,57.44,32,69.14,32,69.15h0s7.77-11.71,12.36-17.62C48.25,46.55,51.1,41.35,51.1,36.65Z" style="fill:#a12337"/><path d="M7.34,12.08a1.63,1.63,0,0,0-1.43-1.77,1.49,1.49,0,0,0-1.43,1,1.49,1.49,0,0,0-1.43-1,1.63,1.63,0,0,0-1.43,1.77,4,4,0,0,0,1,2.23C3.31,15.2,4.48,17,4.48,17h0s1.17-1.76,1.85-2.64A4,4,0,0,0,7.34,12.08Z" style="fill:#a12337"/><path d="M6.82,9.22H5.71l-.3-1.31h-2L3.16,9.22H2.07L3.89,2.44H4.95Zm-1.58-2L4.41,3.7,3.63,7.19Z" style="fill:#a12337"/><path d="M54.85,90.5H8A4.5,4.5,0,0,1,3.5,86V19.19h1V86A3.5,3.5,0,0,0,8,89.5H54.85Z"/><path d="M60.5,74.82h-1V8A3.5,3.5,0,0,0,56,4.5H9.15v-1H56A4.5,4.5,0,0,1,60.5,8Z"/><path d="M62.19,81.94a1.63,1.63,0,0,1-1.43,1.77,1.49,1.49,0,0,1-1.43-1,1.49,1.49,0,0,1-1.43,1,1.63,1.63,0,0,1-1.43-1.77,4,4,0,0,1,1-2.23c.69-.89,1.85-2.64,1.85-2.64h0s1.17,1.76,1.85,2.64A4,4,0,0,1,62.19,81.94Z" style="fill:#a12337"/><path d="M59.79,91.58H58.73L56.91,84.8H58l.29,1.31h2l.3-1.31h1.1Zm-1.32-4.74.78,3.48.83-3.48Z" style="fill:#a12337"/></svg>