<svg xmlns="http://www.w3.org/2000/svg" viewBox="0 0 64 94"><title>aceSpade</title><rect width="64" height="94" rx="4" ry="4" style="fill:#fffce7"/><path d="M42,65.86c5.51,0,10-5.51,10-12.32,0-4.91-3-10.34-7-15.55C40.11,31.84,32,19.62,32,19.61h0S23.89,31.84,19.09,38c-4.05,5.2-7,10.64-7,15.55,0,6.8,4.47,12.32,10,12.32a10.54,10.54,0,0,0,9-4.76c-.94,6.84-5.71,11.73-11.42,12.56l-.12.73H45l-.1-.67C39,73.11,34,68.12,33,61.11A10.54,10.54,0,0,0,42,65.86Z"/><path d="M5.78,16.15a1.49,1.49,0,0,0,1.31-1.61,3.62,3.62,0,0,0-.92-2c-.63-.81-1.69-2.41-1.69-2.41h0s-1.06,1.6-1.69,2.41a3.62,3.62,0,0,0-.92,2,1.49,1.49,0,0,0,1.31,1.61,1.38,1.38,0,0,0,1.18-.62,1.85,1.85,0,0,1-1.5,1.65l0,.1H6.18v-.09A1.84,1.84,0,0,1,4.6,15.53,1.38,1.38,0,0,0,5.78,16.15Z"/><path d="M6.82,9.22H5.71l-.3-1.31h-2L3.16,9.22H2.07L3.89,2.44H4.95Zm-1.58-2L4.41,3.7,3.63,7.19Z"/><path d="M60.59,77.82a1.49,1.49,0,0,1,1.31,1.61,3.62,3.62,0,0,1-.92,2c-.63.81-1.69,2.41-1.69,2.41h0s-1.06-1.6-1.69-2.41a3.62,3.62,0,0,1-.92-2A1.49,1.49,0,0,1,58,77.82a1.38,1.38,0,0,1,1.18.62,1.85,1.85,0,0,0-1.5-1.65l0-.1H61v.09a1.84,1.84,0,0,0-1.57,1.65A1.38,1.38,0,0,1,60.59,77.82Z"/><path d="M59.75,91.54H58.7l-1.82-6.78H58l.29,1.31h2l.3-1.31h1.1Zm-1.32-4.74.78,3.48L60,86.79Z"/><path d="M54.85,90.5H8A4.5,4.5,0,0,1,3.5,86V19.19h1V86A3.5,3.5,0,0,0,8,89.5H54.85Z"/><path d="M60.5,74.82h-1V8A3.5,3.5,0,0,0,56,4.5H9.15v-1H56A4.5,4.5,0,0,1,60.5,8Z"/></svg>