<svg xmlns="http://www.w3.org/2000/svg" viewBox="0 0 64 94"><title>jackSpade</title><rect width="64" height="94" rx="4" ry="4" style="fill:#fffce7"/><path d="M50.2,56.2l-.1.1V67.7a19.42,19.42,0,0,1-.2,2.4c-.1.4-.2.8-.3,1.1h-.2V63.8l-1.6,1.4c-.1-.9-.1-.9.5-1.4a6.47,6.47,0,0,1,.9-.8c.1-.1.2-.2.2-.3V59.5l-1.6,1.3a1.24,1.24,0,0,1,.4-1.4c.3-.2.5-.5.8-.7a.87.87,0,0,0,.4-.9V52.4h.7c.8,0,1.2-.3,1.2-1.1a5.45,5.45,0,0,1,.1-2.2,1.69,1.69,0,0,0-.2-.5V48a2,2,0,0,0,0-1.1,1.1,1.1,0,0,1,0-.8c.5-.9,0-1.6-1-1.7l-.6-.1a5.42,5.42,0,0,1,1.5-2.2l-.8-.8-1.6,2.1-6.8-6.8-2.4,9.2-.3-.2c-3.2-2.6-6.3-5.3-9.5-7.9a2.22,2.22,0,0,0-2.3-.6,4,4,0,0,1-4.8-2.2c-.1-.1-.1-.2-.2-.3a18.89,18.89,0,0,0-6.5,5v-.7a1.92,1.92,0,0,1,.6-1.7,6.55,6.55,0,0,0,1.8-4.8c-.1-3.2-.1-6.3-.1-9.5v-7a8.87,8.87,0,0,0-5.3,4,10,10,0,0,0-1.2,4.8v7.9A7,7,0,0,0,13.3,37c.1.2.3.3.6.6V35.8c0-3.8.1-7.7.1-11.5a3.08,3.08,0,0,1,.6-1.9v7.4l1.6-1.4a1.11,1.11,0,0,1-.5,1.4,2.36,2.36,0,0,0-1.1,2.4v1.9l1.6-1.4a1.15,1.15,0,0,1-.5,1.4,4.62,4.62,0,0,0-.7.7.91.91,0,0,0-.4.8v5.5h-.9a1.24,1.24,0,0,0-1.2,1.3,1.42,1.42,0,0,0,.2.6.64.64,0,0,1,0,.6,1.27,1.27,0,0,0,0,1.2.85.85,0,0,1,0,.7,2.44,2.44,0,0,0,0,1.2.85.85,0,0,1,0,.7,1.31,1.31,0,0,0,.5,1.7c.2.1.4.1.5.2h.5a6.36,6.36,0,0,1-1.4,2.2l.8.9,1.6-2.1L22,57.1l2.4-9.2.2.1c3.5,2.9,6.9,5.8,10.4,8.7a1,1,0,0,0,.9.2,4.7,4.7,0,0,1,3.5.1,4.48,4.48,0,0,1,2.2,2.3,18.33,18.33,0,0,0,6.5-4.9,2.7,2.7,0,0,1-.6,2.4,5.76,5.76,0,0,0-1.7,4.7c.1,2.3,0,4.6,0,6.9v9.7a8.15,8.15,0,0,0,4.3-2.7,9.07,9.07,0,0,0,2.1-6.1c.1-3,.1-5.7.1-8.4a5.1,5.1,0,0,0-.8-2.9C51.1,57.4,50.6,56.8,50.2,56.2ZM17.6,48.4H14c-.3,0-.5-.1-.5-.4s.1-.5.4-.5h3.8a.82.82,0,0,1,.5.5C18.2,48.2,18,48.4,17.6,48.4Zm.2-1.9H14c-.3,0-.6-.1-.6-.5s.2-.5.6-.4h3.8c.3,0,.5.1.5.5S18.1,46.6,17.8,46.5Zm.8-2.2a.55.55,0,0,1-.6.4H14c-.3,0-.5-.1-.5-.5s.2-.4.5-.4h4.1c.2,0,.5.1.5.4Zm-.5-1.4H14c-.4,0-.6-.2-.6-.5s.3-.4.6-.4h4.2c.3,0,.5.1.5.5S18.5,42.9,18.1,42.9ZM27.9,44a.79.79,0,0,1-.8-.8.82.82,0,0,1,.9-.8.86.86,0,0,1,.8.8A1.06,1.06,0,0,1,27.9,44ZM32,47.6a.8.8,0,1,1,.8-.8A.74.74,0,0,1,32,47.6Zm4.2,3.7a.88.88,0,0,1-.9-.8.86.86,0,0,1,.8-.8.79.79,0,0,1,.8.8A.71.71,0,0,1,36.2,51.3Zm10.1-6h3.8a.46.46,0,0,1,.5.4c0,.2-.2.5-.4.5H46.3a.7.7,0,0,1-.4-.5A.43.43,0,0,1,46.3,45.3Zm-.2,1.8h4.1c.1,0,.3.3.3.5s-.3.4-.4.4H46.2c-.3,0-.5-.1-.5-.4S45.8,47.1,46.1,47.1Zm0,1.8h4c.3,0,.5.1.5.4a.47.47,0,0,1-.5.5h-4c-.4,0-.6-.1-.6-.5S45.7,48.9,46.1,48.9Zm1.8,2.7H45.8c-.3,0-.5-.1-.5-.4a.47.47,0,0,1,.5-.5h4.3c.2,0,.5.1.5.4v.1c0,.3-.2.4-.5.4Z"/><path d="M25.2,36.2a4.81,4.81,0,0,0,4.3-1,10.9,10.9,0,0,0,2.7-4c.6-1.5,1.1-3.1,1.7-4.6,1-2.5,2.8-4,5.7-3.7h.2c.4-.1.6.1.7.5.4,1.2.8,2.3,1.3,3.5.2.5.3,1,.5,1.6l-.5.1a10.6,10.6,0,0,0-4.2,1.5,7.26,7.26,0,0,1-3.1,1.7,4.46,4.46,0,0,0,3.4.3c.8-.2,1.5-.4,2.4-.7,0,.8-.1,1.5-.1,2.2,0,.3-.1.4-.4.4a24.37,24.37,0,0,1-2.7-.1c-.9-.1-1.7-.3-2.5-.4,2,1.4,4.2,1.3,6.5,1.3.1-1.6.2-3.2.3-4.7a.75.75,0,0,1,.5-.7H42c.5-.1,1-.2,1.6-.3-.1-.2-.1-.4-.2-.5-.7-1.8-1.3-3.6-2-5.4a1.27,1.27,0,0,1,0-1.2l1.5-3.9c.1-.4,0-.5-.3-.6A23.83,23.83,0,0,0,40,17a33.65,33.65,0,0,0-10,.5c-1.2.2-2.5.7-3.7,1a4.18,4.18,0,0,0,.2.6c.4,1.1.8,2.1,1.2,3.2a.45.45,0,0,1,0,.5c-.4,1.1-.8,2.1-1.2,3.1l-1.2,3a3.37,3.37,0,0,1,1.7.5,16.61,16.61,0,0,0-2.2.3,3.16,3.16,0,0,0-2,3.2A3.73,3.73,0,0,0,25.2,36.2Z"/><path d="M38.7,57.4a4.55,4.55,0,0,0-3.6.6A8.73,8.73,0,0,0,32,62c-.6,1.4-1.1,2.9-1.6,4.4a9.7,9.7,0,0,1-1.6,2.8c-1.4,1.5-3.1,1.6-5,1.5l-2-5.5.5-.1a10.92,10.92,0,0,0,3.6-1.2c1-.6,2.1-1.3,3.1-2,.1,0,.1-.1.1-.2a4.12,4.12,0,0,0-2.9-.1c-.8.2-1.6.5-2.5.7l.2-2.6a15.78,15.78,0,0,1,5.7.5,8.8,8.8,0,0,0-1-.6,13.11,13.11,0,0,0-5.2-.7c-.3,0-.3.2-.4.5l-.3,4.2c0,.4-.1.7-.6.7a5.35,5.35,0,0,0-1.6.4l2.1,5.7a2,2,0,0,1,0,1.5c-.5,1.4-1.1,2.9-1.6,4.3,3,1.6,14.3,1,16.7-.9-.4-1.2-.9-2.4-1.3-3.5a.64.64,0,0,1,0-.6c.4-1.1.8-2.1,1.2-3.2l1.2-3a3.1,3.1,0,0,1-1.7-.5,15.72,15.72,0,0,0,2.3-.4,3.22,3.22,0,0,0,1.8-3.3A3.76,3.76,0,0,0,38.7,57.4Z"/><path d="M29.8,36.1l9.1,7.6,1.9-7.6a19.85,19.85,0,0,1-9-2.1Z"/><path d="M32.1,59.5c.1,0,.3,0,.3-.1.6-.6,1.1-1.3,1.7-2L25,49.8l-1.9,7.5c.1,0,.1.1.2.1A21.89,21.89,0,0,1,32.1,59.5Z"/><path d="M24.9,68.2c-.1,0-.1.1-.2.2a1.25,1.25,0,0,0,1.7.2l.2-.2A1.24,1.24,0,0,0,24.9,68.2Z"/><path d="M39.1,25.4c.1,0,.1-.1.2-.2a1.13,1.13,0,0,0-1.6-.2l-.2.2A1.13,1.13,0,0,0,39.1,25.4Z"/><path d="M7.35,12.08a1.63,1.63,0,0,0-1.43-1.77,1.49,1.49,0,0,0-1.43,1,1.49,1.49,0,0,0-1.43-1,1.63,1.63,0,0,0-1.43,1.77,4,4,0,0,0,1,2.23C3.32,15.2,4.48,17,4.48,17h0s1.17-1.76,1.85-2.64A4,4,0,0,0,7.35,12.08Z"/><path d="M6.25,2.44V7a3.39,3.39,0,0,1-.13,1.38c-.38.93-1.66.93-1.94.93-1.13,0-1.63-.5-1.79-1a3.39,3.39,0,0,1-.1-1.17h1c0,.73,0,.83.1,1a.81.81,0,0,0,.76.4c.85,0,1-.49,1-.77s0-.62,0-.78V2.44Z"/><path d="M54.85,90.5H8A4.5,4.5,0,0,1,3.5,86V19.19h1V86A3.5,3.5,0,0,0,8,89.5H54.85Z"/><path d="M60.5,74.82h-1V8A3.5,3.5,0,0,0,56,4.5H9.16v-1H56A4.5,4.5,0,0,1,60.5,8Z"/><path d="M62.19,81.94a1.63,1.63,0,0,1-1.43,1.77,1.49,1.49,0,0,1-1.43-1,1.49,1.49,0,0,1-1.43,1,1.63,1.63,0,0,1-1.43-1.77,4,4,0,0,1,1-2.23c.69-.89,1.85-2.64,1.85-2.64h0s1.17,1.76,1.85,2.64A4,4,0,0,1,62.19,81.94Z"/><path d="M57.31,91.57V87a3.4,3.4,0,0,1,.13-1.38c.38-.93,1.66-.93,1.94-.93,1.13,0,1.63.5,1.79,1a3.39,3.39,0,0,1,.1,1.17h-1c0-.73,0-.83-.1-1a.81.81,0,0,0-.75-.4c-.85,0-1,.49-1,.77s0,.63,0,.78v4.61Z"/></svg>