<svg xmlns="http://www.w3.org/2000/svg" viewBox="0 0 64 94"><title>kingHeart</title><rect width="64" height="94" rx="4" ry="4" style="fill:#fffce7"/><path d="M49.45,54.05v14.7a6,6,0,0,1-.7,3.2,21,21,0,0,0-1.3,2.6c-.6-1.1-1.2-2.3-1.7-3.4a2,2,0,0,1-.3-1.1V53.95l-.6-.1a9.94,9.94,0,0,1-3.4-.8c-.6-.3-.6-.4-.5-1a9,9,0,0,0,2.2.6c1.7.2,3.4.2,5.1.3a11,11,0,0,1,5.6,1.3c.2-1.2.2-1.3-.9-1.7-.2-.1-.4-.1-.5-.2l-1.6-.4a6.75,6.75,0,0,1-.2-1.4,5.85,5.85,0,0,1,.2-1.3c0-.1,0-.2-.1-.2-.3-.3-.2-.6,0-.9s-.2-.9-.2-1.3.4-.9.2-1.3,0-.7.2-1a2.77,2.77,0,0,0,.5-3.1,2.89,2.89,0,0,0-3.8-1.4,3.13,3.13,0,0,0-1.1.9,2.77,2.77,0,0,0-.5.8l-4.1-4.1-3.2,6.9-9.8-8.1.6-.5,8.9,7.3a.31.31,0,0,0,.1-.2c.9-1.9,1.8-3.7,2.6-5.6a.55.55,0,0,1,.6-.4,5,5,0,0,0,1.2-.2c-.3-1-.6-1.8-.9-2.7s-.3-1.8-.5-2.8l2.4-.3a4.33,4.33,0,0,0-.1-.5c-.5-1.7-1-3.5-1.6-5.2a7.45,7.45,0,0,1-.1-5.3,6.89,6.89,0,0,1,.3-.8l.9-2.3a5.36,5.36,0,0,0-1.9.7c-.8.4-1,.4-1.5-.3s-.9-1.2-1.4-1.8c-.8.5-1.5,1-2.2,1.5-.3.2-.5.3-.8,0-.6-.5-1.4-1.1-2.1-1.7-.6.7-1.1,1.3-1.6,2a.63.63,0,0,1-.8.3.1.1,0,0,1-.1-.1,17.55,17.55,0,0,0-2.4-1.1c-.4.9-.8,1.7-1.2,2.5-.1.2-.3.4-.5.3l-2.1-.4-.6-.1c.6.9,1.1,1.8,1.7,2.6a3.14,3.14,0,0,1,.7,2.1v.4h13.9a.55.55,0,0,1,.6.4c.5,1.7,1,3.4,1.6,5.1a2.39,2.39,0,0,1,.2.9l-2,.2a7.14,7.14,0,0,0-4.3,1.4.64.64,0,0,1-.6,0,7.47,7.47,0,0,1-2.5-2.5,1.36,1.36,0,0,1-.1-1.6c.5-1,.8-2,1.3-3.1-.5,0-.9-.2-1.1.4-.4,1.1-.9,2.2-1.3,3.3a.64.64,0,0,0,0,.6,10.23,10.23,0,0,0,1.4,2.2c.7.7,1.4,1.3,2.1,1.9l-.4,1a6.94,6.94,0,0,1,5.4-2.5l1,4.7a9.52,9.52,0,0,1-6.2-.9,9.15,9.15,0,0,1-4.1-4.8c-.6,1.3-1.1,2.5-1.6,3.7a3.94,3.94,0,0,1-1.8,2,3.47,3.47,0,0,1-4-.4,3,3,0,0,1-.6-3.1,2.38,2.38,0,0,1,2.5-1,2.45,2.45,0,0,1,1.7,1.1,5.12,5.12,0,0,0-1.2-1.8,2.7,2.7,0,0,0-3.7.7v.1a3.57,3.57,0,0,0-.5,3.3l-2.9,1.7c0-.1-.1-.2-.1-.4,0-.4.1-.8.1-1.2V23.75a2.35,2.35,0,0,0-.2-.8c-.6-1.1-1.2-2.2-1.8-3.4l-.9-2.1a21.55,21.55,0,0,1-2.4,4.8,4.63,4.63,0,0,0-.5,1.3v15.8c0,.7.1.8.9.6V25.45a4.93,4.93,0,0,1,.5-2.8l1-2.2.4-.9c.6,1.2,1.2,2.3,1.7,3.4a2.66,2.66,0,0,1,.3,1.2v15.3c0,.5.1.7.7.7a8.08,8.08,0,0,1,3.4.8c.6.3.6.4.5,1a20.15,20.15,0,0,0-2.3-.7c-1.8-.2-3.7-.2-5.5-.3a9.93,9.93,0,0,1-5.1-1.3v1.1c0,.1.1.2.2.3.7.2,1.4.5,2.1.7.3.1.5.1.8.2.1.6.2,1,.3,1.5a.6.6,0,0,1-.1.4,1.28,1.28,0,0,0,0,1.2.45.45,0,0,1,0,.5,1.28,1.28,0,0,0,0,1.2.6.6,0,0,1,.1.4,1.36,1.36,0,0,0,.1,1.7,2.89,2.89,0,0,0-.7,4.1l.3.3a2.72,2.72,0,0,0,2.1.9,2.91,2.91,0,0,0,2.8-2l4,4.1,3.2-6.9,9.8,8.1-.6.5-8.9-7.3c-.1.1-.1.2-.2.3-.9,1.8-1.7,3.7-2.6,5.5a.55.55,0,0,1-.6.4,6.88,6.88,0,0,0-1.3.2,13.07,13.07,0,0,1,1.3,5.5l-2.2.6c.6,2,1.1,3.8,1.8,5.7a7.21,7.21,0,0,1,.1,5.4c-.1.3-.2.5-.3.8l-.9,2.3c.8-.4,1.5-.7,2.2-1,.9-.3.6-.4,1.2.3s1,1.3,1.5,1.9c.7-.6,1.4-1.1,2.1-1.6.3-.3.5-.3.9,0l2,1.7c.6-.7,1.2-1.4,1.7-2.1a.48.48,0,0,1,.6-.2.1.1,0,0,1,.1.1l2.4,1.2a10.09,10.09,0,0,0,.7-1.5c.2-.5.4-1.1.7-1.2a4.42,4.42,0,0,1,1.5.2l1.6.3c-.5-.7-.8-1.3-1.2-1.8a3.93,3.93,0,0,1-1.2-3.1.1.1,0,0,0-.1-.1H23.65c-.2,0-.5-.1-.5-.2-.4-1.3-.8-2.7-1.2-4l-.7-2.2c.8-.1,1.6-.1,2.3-.2a7.88,7.88,0,0,0,3.9-1.3.48.48,0,0,1,.7,0,7.47,7.47,0,0,1,2.5,2.5,1.36,1.36,0,0,1,.1,1.6c-.5,1-.8,2-1.3,3.1.5-.1.9.2,1.1-.4.4-1.1.9-2.2,1.3-3.3a.45.45,0,0,0,0-.5,7.88,7.88,0,0,0-3.4-3.8c-.1,0-.1-.1-.2-.2l.5-1.1a6.94,6.94,0,0,1-5.4,2.5l-1-4.7c4.8-.6,8.3,1.1,10.3,5.7.6-1.3,1.1-2.5,1.6-3.8a3.8,3.8,0,0,1,3.6-2.4,2.82,2.82,0,0,1,2.6,1.3,2.4,2.4,0,0,1,0,2.8,2.14,2.14,0,0,1-2.5.8,6.11,6.11,0,0,1-1.4-.7,2.2,2.2,0,0,0,2.7,1.6c1.9-.3,2.8-2,2.4-4.5l2.9-1.7v12.2a4.1,4.1,0,0,0,.6,2.4,9.15,9.15,0,0,1,.9,1.7c.5,1,.9,2,1.4,3a13.36,13.36,0,0,1,.7-1.8c.6-1.2,1.3-2.3,1.9-3.5a2,2,0,0,0,.3-1.1V54.75C50.25,53.95,50.15,53.85,49.45,54.05Zm-3.5-8.6h.7v-.1h2.5a.9.9,0,0,1,.5.1.54.54,0,0,1,.3.4.78.78,0,0,1-.4.4h-3.6c-.3,0-.5-.1-.5-.5C45.45,45.55,45.65,45.45,45.95,45.45Zm-.2,1.8h3.7c.3,0,.5.1.5.4a.47.47,0,0,1-.5.5h-3.7c-.3,0-.5-.1-.5-.5S45.45,47.25,45.75,47.25Zm-.2,1.8h3.9a.47.47,0,0,1,.5.5c0,.3-.2.4-.5.4h-4c-.3,0-.5-.1-.5-.5S45.25,49.05,45.55,49.05Zm-.2,1.8h4.1c.3,0,.5.1.5.5s-.2.4-.5.4h-4.1c-.3,0-.5-.1-.5-.4A.47.47,0,0,1,45.35,50.85Zm-14.6-17.3,7.2,5.7.7-1.5c.3-.7.3-.7,1.3-.6l-1.7,3.5-3.6-2.9-3.7-3C30.35,34.25,30.35,34.25,30.75,33.55ZM18,48.65h-3.7a.82.82,0,0,1-.5-.5c0-.3.2-.4.5-.4h3.6c.3,0,.5.1.5.4A.66.66,0,0,1,18,48.65Zm.1-1.8h-3.7c-.3,0-.6-.1-.6-.4s.2-.5.6-.5h3.7c.3,0,.5.1.5.5S18.45,46.85,18.15,46.85Zm.2-1.8h-3.9c-.4,0-.6-.1-.6-.5s.2-.4.6-.4h3.8c.3,0,.5.1.5.5S18.65,45.05,18.35,45.05Zm.1-1.8h-4c-.3,0-.6-.1-.6-.4s.2-.5.5-.5h4.1c.3,0,.6.1.6.4S18.75,43.25,18.45,43.25Zm9.5,1.1a.8.8,0,1,1,.8-.8C28.75,43.95,28.35,44.25,27.95,44.35Zm4,3.5a.8.8,0,1,1,.8-.8A.86.86,0,0,1,31.95,47.85ZM33,60.55l-7.1-5.6-.7,1.5c-.3.6-.3.6-1.3.5l1.7-3.5,1.1.9,6.2,5C33.55,59.85,33.55,59.85,33,60.55Zm3.1-9.2h-.2a.75.75,0,0,1-.7-.9.68.68,0,0,1,.7-.7.74.74,0,0,1,.9.7A.81.81,0,0,1,36.15,51.35Z" style="fill:#a12337"/><path d="M46.95,69.85c.1.4.2.7.3,1.1h.2c.1-.4.2-.9.3-1.3V53.95h-.9v.3C46.95,59.45,46.95,64.65,46.95,69.85Z" style="fill:#a12337"/><path d="M16.95,24.15a3,3,0,0,0-.4-1h-.2c-.1.5-.2.9-.3,1.4v15.6h.8c0-.1,0-.1.1-.2Z" style="fill:#a12337"/><path d="M26,25.15l-1.6,3.9-.3.9c1,0,1,0,1.3-.8a2,2,0,0,1,.4-.8l1.5-3.6C26.35,24.45,26.35,24.45,26,25.15Z" style="fill:#a12337"/><path d="M37.85,68.85c.5-1.3,1-2.5,1.6-3.8l.3-.9c-1.1,0-.9-.2-1.3.8l-.1.3-1.7,4.2C37.55,69.65,37.55,69.65,37.85,68.85Z" style="fill:#a12337"/><path d="M28.45,25.15l-.9,2.1c-.3.7-.5,1.2-.8,1.9.9.2.9.1,1.2-.6l.6-1.5,1-2.5C28.75,24.45,28.75,24.45,28.45,25.15Z" style="fill:#a12337"/><path d="M35.45,68.85c.2-.6.5-1.2.7-1.8l.9-2.2c-.9-.2-.9-.1-1.2.6l-.1.3-1.5,3.6C35.15,69.55,35.15,69.55,35.45,68.85Z" style="fill:#a12337"/><path d="M30.85,27.75c.2-.5.4-.9.6-1.4s.5-1.2.7-1.8l-.2-.1c-.3.1-.8.1-.9.3l-1.5,3.6C30.55,28.45,30.45,28.45,30.85,27.75Z" style="fill:#a12337"/><path d="M33.25,65.85c-.6,1.2-1,2.4-1.5,3.6.9.1.9.1,1.2-.7l.1-.1,1.2-3-.1-.1C33.85,65.65,33.35,65.65,33.25,65.85Z" style="fill:#a12337"/><path d="M23.95,68.45a1.13,1.13,0,0,0,1.6.2c.1-.1.2-.1.2-.2a1.13,1.13,0,0,0-1.6-.2Z" style="fill:#a12337"/><path d="M39.65,25.85c.1-.1.2-.2.2-.3a1,1,0,0,0-1.6-.1.1.1,0,0,0-.1.1A1.1,1.1,0,0,0,39.65,25.85Z" style="fill:#a12337"/><path d="M7.35,12.08a1.63,1.63,0,0,0-1.43-1.77,1.49,1.49,0,0,0-1.43,1,1.49,1.49,0,0,0-1.43-1,1.63,1.63,0,0,0-1.43,1.77,4,4,0,0,0,1,2.23C3.32,15.2,4.48,17,4.48,17h0s1.17-1.76,1.85-2.64A4,4,0,0,0,7.35,12.08Z" style="fill:#a12337"/><path d="M6.93,9.22H5.77L4.26,5.76l-.67.82V9.22h-1V2.44h1V5.36L5.77,2.44H6.93L4.94,5Z" style="fill:#a12337"/><path d="M54.85,90.5H8A4.5,4.5,0,0,1,3.5,86V19.19h1V86A3.5,3.5,0,0,0,8,89.5H54.85Z"/><path d="M60.5,74.82h-1V8A3.5,3.5,0,0,0,56,4.5H9.16v-1H56A4.5,4.5,0,0,1,60.5,8Z"/><path d="M62.19,81.94a1.63,1.63,0,0,1-1.43,1.77,1.49,1.49,0,0,1-1.43-1,1.49,1.49,0,0,1-1.43,1,1.63,1.63,0,0,1-1.43-1.77,4,4,0,0,1,1-2.23c.69-.89,1.85-2.64,1.85-2.64h0s1.17,1.76,1.85,2.64A4,4,0,0,1,62.19,81.94Z" style="fill:#a12337"/><path d="M59.78,89l2,2.55H60.61l-2.18-2.92v2.92h-1V84.8h1v2.65l.67.82,1.51-3.46h1.16Z" style="fill:#a12337"/></svg>