<svg xmlns="http://www.w3.org/2000/svg" viewBox="0 0 64 94"><title>queenClub</title><rect width="64" height="94" rx="4" ry="4" style="fill:#fffce7"/><path d="M38,67.85q1.2-2.85,2.7-5.7c.6-1.2,1.5-2.4,2.2-3.6a12.64,12.64,0,0,0-4.3-1.3,9.9,9.9,0,0,0-8.8,4,.61.61,0,0,0,0,.8,19.1,19.1,0,0,1,1.5,2.8,8.09,8.09,0,0,1-.7,6.8,1.2,1.2,0,0,1-1,.7c-1.3,0-2.6.1-3.8.1-.3,0-.6-.1-.6-.5a1.88,1.88,0,0,0-.2-.8l-1.5-4.5a1.42,1.42,0,0,1,.6-.2c.5-.1.6-.4.7-.9.1-1.1.2-2.2.4-3.5l3.4.4a8.21,8.21,0,0,0-4.3-1.2c-.2,1-.3,2-.4,3A1.45,1.45,0,0,1,22.5,66c-.3,0-.4.2-.2.5.7,1.9,1.3,3.7,2,5.6a.64.64,0,0,1,0,.6c-.4,1.1-.7,2.2-1.1,3.2-.2.5-.3,1.1-.5,1.7l1.6-.7c1-.5,1-.5,1.7.4a15,15,0,0,1,1.1,1.3c.6-.5,1.2-1,1.7-1.5a.63.63,0,0,1,.9-.1l.1.1a20.28,20.28,0,0,0,1.8,1.3,24.25,24.25,0,0,0,1.4-2,.48.48,0,0,1,.7-.2h.1c.7.3,1.5.6,2.2.9.3-.6.5-1.2.8-1.8.4-.8.4-.8,1.3-.7.6.1,1.2.2,1.9.3-1-1.3-1.8-2.5-2.7-3.7a.61.61,0,0,1-.1-.8A11.72,11.72,0,0,1,38,67.85Z"/><path d="M21.3,35.25c-.2.3-.2.5.2.6A11.86,11.86,0,0,0,25.7,37a9.66,9.66,0,0,0,7.9-3.4c.9-1,.9-1,.2-2.1a8.86,8.86,0,0,1-1.4-5.7,10.92,10.92,0,0,1,1.2-3.6.82.82,0,0,1,.6-.4c1.4-.1,2.8-.1,4.2-.2a.47.47,0,0,1,.5.5c.3.9.5,1.8.8,2.7a27.71,27.71,0,0,0,1,2.6c-.3.1-.5.2-.8.3s-.5.3-.6.7c-.1,1.2-.3,2.3-.4,3.6l-3.5-.4a7.39,7.39,0,0,0,4.3,1.2,15.52,15.52,0,0,0,.3-3.1c0-1.1.5-1.4,1.4-1.6.3-.1.4-.2.3-.5-.6-1.5-1.1-3.1-1.7-4.6a3,3,0,0,1,0-2.6,15.55,15.55,0,0,0,.8-2.3c.2-.5.2-1,.4-1.6-.7.3-1.4.6-2,.9a.38.38,0,0,1-.6-.1l-1.7-1.8a1.38,1.38,0,0,0-.3.4A17.42,17.42,0,0,0,35.2,17a.62.62,0,0,1-.8.1.1.1,0,0,1-.1-.1c-.6-.5-1.2-.9-1.9-1.4L30.7,18a16,16,0,0,1-2.3-1c-.3-.1-.4,0-.5.2-.3.6-.5,1.3-.8,1.9a.42.42,0,0,1-.6.3L24.2,19a2.19,2.19,0,0,0,.3.5c.8,1.1,1.6,2.1,2.4,3.2a1.42,1.42,0,0,1,.2.6c-1,2.5-2,5-3,7.3A26.9,26.9,0,0,1,21.3,35.25Z"/><path d="M32.1,36c-.3-.1-.8.4-1.2.6l-.3.1,6.4,5.5.3-.4c1.1-1.6,2.2-3.2,3.3-4.9.5-.7.5-.9-.3-1.4l-3.1,4.6L33.6,37A6.53,6.53,0,0,0,32.1,36Z"/><path d="M32.1,58.25a7.46,7.46,0,0,0,1.2-.7L27,52.15c-.1.2-.2.2-.3.3l-3.2,4.8c-.7,1-.6.7.1,1.5h.1l3.1-4.6c.2.1.3.2.5.3,1.4,1.2,2.8,2.5,4.2,3.7A.66.66,0,0,0,32.1,58.25Z"/><path d="M38.6,36.35a.68.68,0,0,0-.7-.7.77.77,0,0,0-.7.8c0,.3.3.5.7.5A.67.67,0,0,0,38.6,36.35Z"/><path d="M35.7,36.35a.68.68,0,0,0-.7-.7h-.1c-.4,0-.6.3-.6.7a.68.68,0,0,0,.7.7A.84.84,0,0,0,35.7,36.35Z"/><path d="M28.2,58a.7.7,0,1,0,.7-.7A.68.68,0,0,0,28.2,58Z"/><path d="M25.9,57.35a.7.7,0,1,0,0,1.4.6.6,0,0,0,.6-.7A.56.56,0,0,0,25.9,57.35Z"/><path d="M25.7,69c0,.1-.2.2-.3.4a1,1,0,0,0,1.5.2c.1-.1.2-.1.2-.2A1,1,0,0,0,25.7,69Z"/><path d="M38.2,25.25l.3-.3a1.1,1.1,0,0,0-1.5-.3l-.3.3A1.1,1.1,0,0,0,38.2,25.25Z"/><path d="M51.6,67.25a1.8,1.8,0,0,0,.1-2.2,1.93,1.93,0,0,0-2.6-.7v-7a6.37,6.37,0,0,1,1.2,2.3,4.26,4.26,0,0,0,4,3.3l.7.1c-.1-.5-.1-.9-.2-1.3a4.19,4.19,0,0,0-3.1-3.4,2.48,2.48,0,0,1-1.6-1.2,5.76,5.76,0,0,1-.9-4.4h.6a1.17,1.17,0,0,0,1.4-1,1,1,0,0,0-.2-.9,1,1,0,0,0-.1-.3,1.36,1.36,0,0,0-.1-1.7,1.22,1.22,0,0,0,.1-1.6.3.3,0,0,1,0-.4,1.18,1.18,0,0,0-.3-1.7,1,1,0,0,0-.9-.2c-.1,0-.4,0-.4-.1a.9.9,0,0,1,.1-.5c.4-.6.8-1.2,1.3-1.9l-.7-.9-1.7,2.2L41.6,37l-4.4,6.6-2.7-2.3L30,37.45a.62.62,0,0,0-.7-.1,11.65,11.65,0,0,1-8.4-.8,1.07,1.07,0,0,0-1.4.1,24.33,24.33,0,0,1-2.5,2c-.4.4-.7.8-1.1,1.2a5.87,5.87,0,0,1,1.3-4.2,2.09,2.09,0,0,1,.6-.4,4.6,4.6,0,0,0,3.9-4.9l-.6.1A4.48,4.48,0,0,0,16.9,34a5.07,5.07,0,0,1-.9,1.6v-5.8a1.83,1.83,0,0,0,2.4-2.7c1.1-.6,1.6-1.3,1.3-2.2a2.38,2.38,0,0,0-.6-1.1,2,2,0,0,0-1.8-.4c-.2-1.5-1-2-2.1-2-.8,0-1.4.8-1.6,1.9-1.6,0-2.2.3-2.5,1.2s0,1.6,1.2,2.4a1.8,1.8,0,0,0-.1,2.2,2,2,0,0,0,2.6.6v7.1a7.19,7.19,0,0,1-1.2-2.1,4.21,4.21,0,0,0-1.6-2.5,5.29,5.29,0,0,0-3-.9A4.56,4.56,0,0,0,12.4,36a1.14,1.14,0,0,1,.8.3,6.2,6.2,0,0,1,1.6,5.2c-.6.1-1.3-.1-1.7.5a1.24,1.24,0,0,0,.1,1.7,1.27,1.27,0,0,0,0,1.8,1.27,1.27,0,0,0,0,1.8c-.7,1.2-.2,2.1,1,2.1.4,0,.5.2.3.5-.4.7-.9,1.3-1.3,1.9l.7.8,1.6-2.1,6.7,6.7,4.5-6.7.4.3c2.3,2,4.5,3.9,6.7,5.9a1,1,0,0,0,.9.2,9.25,9.25,0,0,1,2.3-.4A12.4,12.4,0,0,1,43.3,58a.6.6,0,0,0,.8,0c1-.8,1.9-1.6,2.9-2.5a7.64,7.64,0,0,1,.9-.9,5.76,5.76,0,0,1-1,3.8,1.58,1.58,0,0,1-.7.7c-.5.2-1,.3-1.5.5A4.38,4.38,0,0,0,42.2,64a4.72,4.72,0,0,0,4.7-3.5,15.1,15.1,0,0,1,.9-1.8l.1.1v5.7a1.81,1.81,0,0,0-2.3.4,2,2,0,0,0,0,2.5,1.53,1.53,0,0,0-1.6,1.3,3.71,3.71,0,0,0,.4,1.5,2.07,2.07,0,0,0,2.1.7c.3,1.3.8,2,1.8,2a2.66,2.66,0,0,0,1.2-.3,2,2,0,0,0,.9-1.6c1.2.2,2-.1,2.4-1a2.46,2.46,0,0,0,.1-1.2A1.83,1.83,0,0,0,51.6,67.25ZM14.3,26a1.05,1.05,0,0,1,2.1-.1.94.94,0,0,1-1,1h-.1A.86.86,0,0,1,14.3,26Zm3.4,22.7H14.1c-.3,0-.6-.1-.6-.5s.2-.5.6-.4h3.6c.3,0,.5.1.5.4A.47.47,0,0,1,17.7,48.75Zm.2-1.8H14.1c-.4,0-.5-.2-.5-.5s.2-.5.5-.4h3.8c.3,0,.5.1.5.4A.47.47,0,0,1,17.9,47Zm.1-1.8H14.1c-.3,0-.6-.1-.6-.5s.2-.5.6-.5H18c.3,0,.5.1.5.5S18.4,45.15,18,45.15Zm.2-1.8H14.1c-.3,0-.6-.1-.6-.5s.2-.5.5-.5h4.1c.3,0,.6.1.6.5S18.6,43.35,18.2,43.35Zm10.6.15a1.22,1.22,0,0,1-.9.8.79.79,0,0,1-.8-.8.86.86,0,0,1,.8-.8H28a.77.77,0,0,1,.8.7ZM32,47.8a.8.8,0,1,1,.8-.8A.79.79,0,0,1,32,47.8Zm4,3.7a.8.8,0,0,1,0-1.6.8.8,0,0,1,0,1.6Zm10.1-5.85h3.8c.3,0,.5.2.4.4a1,1,0,0,1-.4.5,1.7,1.7,0,0,1-.7.1H46.1c-.2,0-.4-.3-.4-.5S45.8,45.55,46.1,45.65Zm-.1,1.7h3.9c.3,0,.6.1.6.5s-.3.4-.6.4c-1.3,0-2.6.1-3.9,0-.2,0-.4-.3-.5-.5S45.8,47.45,46,47.35Zm-.1,1.9H50a.78.78,0,0,1,.4.4c-.1.2-.2.4-.4.4H45.9c-.3,0-.5-.1-.5-.4A.46.46,0,0,1,45.9,49.25ZM47.8,52H45.7c-.3,0-.6-.1-.6-.5s.2-.5.5-.5h4.2c.3,0,.5.1.5.5s-.2.5-.5.5Zm.7,17.4a1.11,1.11,0,0,1-1.1-1.1.94.94,0,0,1,1-1,1.06,1.06,0,0,1,1.2,1A1.11,1.11,0,0,1,48.5,69.35Z"/><path d="M6.06,10.05l-1.27-1h-.3c-.56,0-1.57,0-1.94-.84a5,5,0,0,1-.19-2.08c0-.56,0-2.07.06-2.54s.22-1.51,2.15-1.51a2.22,2.22,0,0,1,1.56.51c.38.4.46.91.46,2.2,0,.61,0,1.65-.06,2.16,0,.75-.08,1.53-.91,1.9l1,.7ZM3.47,7.6c0,.22.1.78,1,.78s1-.64,1-1.08,0-1.32,0-1.8,0-1,0-1.59c0-.37,0-1.09-1-1.09s-1,.63-1.06,1.08c0,.25,0,.5,0,1.6C3.43,6.89,3.43,7.35,3.47,7.6Z"/><path d="M54.85,90.5H8A4.5,4.5,0,0,1,3.5,86V19.19h1V86A3.5,3.5,0,0,0,8,89.5H54.85Z"/><path d="M60.5,74.82h-1V8A3.5,3.5,0,0,0,56,4.5H9.16v-1H56A4.5,4.5,0,0,1,60.5,8Z"/><path d="M61.49,84.45l-1,.7c.83.38.88,1.15.91,1.9,0,.51.06,1.54.06,2.16,0,1.29-.07,1.79-.46,2.2a2.22,2.22,0,0,1-1.56.51c-1.93,0-2.1-1.14-2.15-1.51s-.06-2-.06-2.54a5,5,0,0,1,.19-2.08c.37-.82,1.38-.84,1.94-.84h.3l1.27-1Zm-3.21,4.07c0,1.1,0,1.35,0,1.6,0,.45.11,1.08,1.06,1.08s1-.73,1-1.09c0-.64,0-1.24,0-1.59s0-1.32,0-1.8-.07-1.08-1-1.08-1,.56-1,.78S58.27,87.12,58.27,88.52Z"/><path d="M5.77,16.17a1.48,1.48,0,0,0,1.31-1.61,1.48,1.48,0,0,0-1.31-1.61,1.07,1.07,0,0,0-.26,0,1.85,1.85,0,0,0,.3-1A1.48,1.48,0,0,0,4.5,10.34,1.48,1.48,0,0,0,3.2,12a1.84,1.84,0,0,0,.32,1,1.07,1.07,0,0,0-.35-.06,1.48,1.48,0,0,0-1.31,1.61,1.48,1.48,0,0,0,1.31,1.61,1.33,1.33,0,0,0,1.19-1h0v0a2.09,2.09,0,0,1-1.68,2.17l0,.11H6.35v-.1a2.08,2.08,0,0,1-1.75-2.18v0h0A1.33,1.33,0,0,0,5.77,16.17Z"/><path d="M58.11,78a1.65,1.65,0,0,0,0,3.23,1.07,1.07,0,0,0,.26,0,1.85,1.85,0,0,0-.3,1,1.34,1.34,0,1,0,2.61,0,1.84,1.84,0,0,0-.32-1,1.07,1.07,0,0,0,.35.06,1.65,1.65,0,0,0,0-3.23,1.33,1.33,0,0,0-1.19,1h0v0a2.09,2.09,0,0,1,1.68-2.17l0-.11H57.53v.1a2.08,2.08,0,0,1,1.75,2.18v0h0A1.33,1.33,0,0,0,58.11,78Z"/></svg>